<?xml version="1.0" encoding="utf-8"?>
<!-- Generator: Adobe Illustrator 27.3.1, SVG Export Plug-In . SVG Version: 6.00 Build 0)  -->
<svg version="1.1" id="Layer_1" xmlns="http://www.w3.org/2000/svg" xmlns:xlink="http://www.w3.org/1999/xlink" x="0px" y="0px"
	 viewBox="0 0 701 410" style="enable-background:new 0 0 701 410;" xml:space="preserve">
<style type="text/css">
	.st0{fill:#333333;}
	.st1{fill:url(#SVGID_1_);}
	.st2{fill:url(#SVGID_00000163074632933822448610000011234752634573372848_);}
	.st3{fill:url(#SVGID_00000113328567031993461210000013971636408357409705_);}
	.st4{fill:url(#SVGID_00000080184386533279170480000013125475710991524284_);}
	.st5{fill:url(#SVGID_00000017497675228922631890000017049306501658809738_);}
	.st6{fill:url(#SVGID_00000017498399464300292180000016101274011810262425_);}
	.st7{fill-rule:evenodd;clip-rule:evenodd;fill:url(#SVGID_00000002364172597558604920000006308767173165184953_);}
	.st8{fill:url(#SVGID_00000080165060640120174630000013352640035079414179_);}
	.st9{fill:url(#SVGID_00000145779889828098791260000011065447326072477624_);}
	.st10{fill:#252525;}
	.st11{fill:url(#SVGID_00000066513853191610569200000010429663811021991840_);}
</style>
<linearGradient id="SVGID_1_" gradientUnits="userSpaceOnUse" x1="1.0006" y1="207.819" x2="699.9995" y2="207.819">
	<stop  offset="0" style="stop-color:#009FFF"/>
	<stop  offset="1" style="stop-color:#1E77ED"/>
</linearGradient>
<path class="st1" d="M341.09,387.44h45.05v14.65H189.28v-14.65h55.13h1.4l-0.46-1.33L205.88,271.7l-0.23-0.67h-0.71H103.34h-0.71
	l-0.23,0.67L62.93,386.12l-0.46,1.33h1.4h53.96v14.65H1v-14.65h41.8h0.7l0.24-0.66L181.24,6.96h18.59l140.32,379.83l0.24,0.65
	H341.09z M198.86,256.29h1.4l-0.46-1.33l-44.47-128.33l-0.23-0.67h-0.71h-1.08h-0.71l-0.23,0.67l-44.47,128.33l-0.46,1.33h1.4
	H198.86z M584.24,366.21l-0.14-0.84h-0.85h-1.08h-0.71l-0.23,0.67c-9.77,28.26-39.14,42.63-89.07,42.63
	c-27.2,0-47.89-7.77-62.31-23.25c-14.44-15.51-21.63-36.8-21.63-64.02c0-10.65,1.4-20.04,4.11-28.34
	c2.71-8.29,6.55-14.81,11.43-19.85c4.92-5.09,10.92-9.69,18.09-13.73c7.17-4.04,14.99-7.17,23.65-9.31l0.01,0
	c8.31-2.16,17.38-4.31,27.09-6.62l1.2-0.29c10.13-2.41,20.93-4.49,32.41-6.4l0.02,0l0.02-0.01c22.27-4.84,40.82-10.35,55.72-16.71
	l0.61-0.26v-0.66v-34.48c0-14.55-3.45-25.82-10.51-33.49c-7.13-7.74-20.42-11.4-39.37-11.4c-14.15,0-24.67,2.51-31.42,7.7
	c-6.68,5.14-10.51,11.45-11.46,18.99c-0.92,7.27-1.59,14.62-1.92,21.98c-0.32,7.18-2.89,13.11-7.47,17.92
	c-4.55,4.71-12.38,7.19-23.68,7.19c-10.05,0-17.39-2.46-22.23-7.21c-4.83-4.74-7.33-11.93-7.33-21.77
	c0-11.27,3.42-20.95,10.34-29.08l0-0.01c6.87-8.18,16.04-14.41,27.31-18.61c11.44-4.23,22.62-7.29,33.71-9.11h0
	c11.02-1.82,22.13-2.74,33.15-2.74c16.64,0,30.68,0.5,42.14,1.41c11.42,0.91,23.1,3.06,35.12,6.38c11.9,3.3,21.33,7.91,28.27,13.71
	c6.85,5.79,12.51,13.81,16.96,24.02c4.18,10.26,6.33,22.78,6.33,37.42v131.66c0,9.28,0.63,17.08,1.89,23.37
	c1.26,6.28,3.18,11.14,5.82,14.48c2.67,3.38,6.79,5.82,12.25,7.42c5.23,1.53,11.74,2.31,19.52,2.37v14.74
	c-26.93,2.2-47.33,3.25-61.21,3.25c-17.68,0-30.5-2.75-38.58-8.16C592.21,391.83,586.8,381.66,584.24,366.21L584.24,366.21z
	 M582.59,235.88v-1.42l-1.34,0.48l-47.78,17.23c0,0-0.01,0-0.01,0c-16.46,5.63-28.49,13.98-36.05,25.11
	c-7.58,11.16-11.25,28.73-11.25,52.52c0,17.88,3.43,31.46,10.47,40.59c7.08,9.18,17.69,13.7,31.66,13.7
	c10.17,0,18.96-2.63,26.4-7.93c7.35-5.24,12.71-11.18,16.13-17.85c3.39-6.61,6.08-15.2,8.17-25.83l0-0.01
	c2-10.59,3.18-19.06,3.35-25.39c0.17-6.42,0.25-14.18,0.25-23.43L582.59,235.88z"/>
</svg>
