<?xml version="1.0" encoding="utf-8"?>
<!-- Generator: Adobe Illustrator 27.3.1, SVG Export Plug-In . SVG Version: 6.00 Build 0)  -->
<svg version="1.1" id="Layer_1" xmlns="http://www.w3.org/2000/svg" xmlns:xlink="http://www.w3.org/1999/xlink" x="0px" y="0px"
	 viewBox="0 0 701 410" style="enable-background:new 0 0 701 410;" xml:space="preserve">
<style type="text/css">
	.st0{fill:#333333;}
	.st1{fill:url(#SVGID_1_);}
	.st2{fill:url(#SVGID_00000163774553508122225370000004798193828570001593_);}
	.st3{fill:url(#SVGID_00000170971643043910574230000007394469612358416053_);}
	.st4{fill:url(#SVGID_00000177472447140226979610000017275079188093703608_);}
	.st5{fill:url(#SVGID_00000023279921384376166540000007109755612818169745_);}
	.st6{fill:url(#SVGID_00000032647330387321753900000006808783868302216345_);}
	.st7{fill-rule:evenodd;clip-rule:evenodd;fill:url(#SVGID_00000094576494494678893880000000454975448391951779_);}
	.st8{fill:url(#SVGID_00000037653997815631758260000011544807087455049350_);}
	.st9{fill:url(#SVGID_00000176729685898882185040000000001920369559367572_);}
	.st10{fill:#252525;}
	.st11{fill:url(#SVGID_00000017476628506195224690000013576532006680140208_);}
</style>
<g>
	<g>
		<g>
			<path class="st0" d="M151.41,394.15H0v-41.79l46.11-0.65l0.29-0.96c0,0,0,0,0,0l2.44-8.1c1.76-5.83,4.32-14.28,7.5-24.72
				c5.79-19,14.86-48.61,25.22-81.76c18.23-58.37,43.87-138.71,62.5-189.98h0h0l-33.48-0.65V8.61h187.37v36.83l-33.8,0.65l0,0
				c18.8,51.27,44.52,131.61,62.79,189.98c8.27,26.43,16.77,53.94,25.25,81.76c3.19,10.44,5.74,18.89,7.51,24.72l2.44,8.1
				c0,0,0,0,0,0l0.29,0.96l45.79,0.65v41.79H256.81V351.6l50.11,0l-25.06-99.25H126.35l-24.73,99.68h49.79V394.15z M2,392.15h147.41
				v-38.12H99.07l25.72-103.68h158.64l26.06,103.25h-50.68v38.44h147.41v-37.82l-45.28-0.64l-0.71-2.36h0l-2.44-8.1
				c-1.76-5.83-4.32-14.28-7.51-24.72c-8.48-27.82-16.98-55.32-25.25-81.75C306.78,178.31,281.07,98,262.28,46.77l-0.97-2.63
				l34.65-0.67V10.61H112.59v32.97l34.31,0.66l-0.96,2.63c-18.62,51.23-44.25,131.54-62.47,189.89
				c-10.35,33.15-19.42,62.75-25.21,81.75c-3.18,10.44-5.74,18.89-7.5,24.72l-3.15,10.46L2,354.33V392.15z M271.13,213.86H137.09
				l2.72-9.39c1.27-4.35,3.08-10.58,5.28-18.08c5.85-19.96,11.38-38.59,16.44-55.35c7.11-23.55,13.05-42.63,17.65-56.7
				c2.73-8.36,5.02-15.02,6.79-19.8c0.97-2.6,1.8-4.7,2.48-6.23c0.37-0.84,0.7-1.52,1-2.07c0.36-0.67,0.68-1.14,0.99-1.49l0.59-0.66
				h26.5l0.6,0.66c0.32,0.35,0.63,0.82,0.99,1.49c0.3,0.55,0.62,1.22,0.99,2.07c0.68,1.54,1.51,3.64,2.47,6.23
				c1.76,4.76,4.03,11.42,6.76,19.8c4.57,14.07,10.47,33.15,17.53,56.7c5.04,16.79,10.53,35.42,16.33,55.35
				c2.18,7.5,3.98,13.73,5.24,18.08l2.03,7l-0.01,0.04L271.13,213.86z M139.75,211.86h128.73l-0.72-2.5l-1.25-4.33
				c-1.26-4.35-3.06-10.58-5.24-18.08c-5.8-19.93-11.29-38.55-16.33-55.34C237.89,108.07,232,89,227.43,74.95
				c-2.72-8.36-4.98-14.99-6.73-19.73c-0.94-2.55-1.76-4.61-2.42-6.12c-0.34-0.78-0.65-1.43-0.92-1.92
				c-0.27-0.51-0.51-0.88-0.71-1.09h-24.73c-0.2,0.22-0.44,0.58-0.71,1.09c-0.27,0.5-0.58,1.14-0.92,1.92
				c-0.66,1.5-1.48,3.56-2.44,6.12c-1.77,4.75-4.04,11.39-6.77,19.72c-4.59,14.06-10.53,33.12-17.63,56.66
				c-5.06,16.76-10.59,35.38-16.44,55.34c-2.2,7.5-4.01,13.73-5.27,18.08L139.75,211.86L139.75,211.86L139.75,211.86z"/>
		</g>
	</g>
	<g>
		<g>
			<path class="st0" d="M513.41,401.39c-58.99,0-90.82-40.95-90.82-79.49c0-30.82,11.5-53.49,34.18-67.39
				c19.21-11.77,45.97-17.5,81.81-17.5c20.45,0,42.15,2.25,64.47,6.7v-32.4c0-17.56-6.56-30.95-19.49-39.81
				c-11.17-7.66-27.1-11.7-46.06-11.7c-27.42,0-48.68,9.51-61.48,27.5l-0.41,0.57l-46.77-13.07l0.67-1.12
				c20.94-34.94,60.59-53.41,114.67-53.41c38.78,0,67.69,9.12,85.91,27.11c15.08,14.89,22.73,35.56,22.73,61.45v144.71H701v40.5
				h-92.66l-0.05-4.34c-0.04-2.6-0.09-6.07-0.15-9.54c-0.06-3.47-0.13-6.94-0.21-9.54c-0.04-1.29-0.08-2.38-0.12-3.14
				c-0.02-0.36-0.04-0.66-0.06-0.88c-0.01-0.08-0.02-0.16-0.03-0.23l-0.11-0.02C572.4,391.89,546.85,401.39,513.41,401.39z
				 M538.58,239.02c-35.46,0-61.88,5.63-80.76,17.2c-22.05,13.51-33.23,35.61-33.23,65.68c0,37.56,31.13,77.49,88.82,77.49
				c32.99,0,58.23-9.41,93.11-34.72l0.53-0.38h0.65c0.63,0,1.22,0.29,1.6,0.8c0.12,0.16,0.21,0.33,0.28,0.51
				c0.06,0.16,0.09,0.3,0.11,0.37c0.03,0.15,0.05,0.3,0.06,0.43c0.02,0.24,0.05,0.57,0.07,0.97c0.04,0.78,0.08,1.88,0.12,3.19
				c0.08,2.61,0.15,6.09,0.21,9.56c0.06,3.47,0.11,6.94,0.15,9.55l0.03,2.36H699v-36.5h-48.17V208.83
				c0-25.33-7.45-45.53-22.14-60.03c-17.84-17.6-46.27-26.53-84.51-26.53c-52.76,0-91.55,17.74-112.28,51.32l42.88,11.98
				c13.23-18.17,34.89-27.77,62.7-27.77c19.36,0,35.68,4.17,47.19,12.05c13.51,9.26,20.36,23.21,20.36,41.46v34.84l-2.39-0.48
				C580.46,241.26,558.9,239.02,538.58,239.02z M520.54,366.35c-16.07,0-29.58-4.47-39.08-12.94c-8.89-7.93-13.79-19.12-13.79-31.5
				c0-10.78,2.23-20.02,6.63-27.46c3.98-6.73,9.83-12.18,17.4-16.18c11.89-6.29,27.85-9.22,50.22-9.22c12.04,0,23.7,1.25,34.51,2.59
				c1.86,0.23,3.68,0.46,5.45,0.69c8.32,1.07,15.51,1.98,21.32,2.12l1.95,0.04l0,60.95l-0.66,0.59
				C584.14,354.45,551.18,366.35,520.54,366.35z M541.92,271.04c-22.03,0-37.69,2.86-49.29,8.99c-7.23,3.83-12.82,9.02-16.61,15.43
				c-4.22,7.13-6.35,16.03-6.35,26.45c0,11.81,4.66,22.46,13.12,30.01c9.12,8.13,22.17,12.43,37.74,12.43
				c30.17,0,62.6-11.7,82.62-29.81l0.01-58.1h-0.01c-5.92-0.13-13.15-1.06-21.53-2.13c-1.77-0.23-3.59-0.46-5.44-0.69
				C565.44,272.28,553.85,271.04,541.92,271.04z M604.13,276.44h0.02H604.13z"/>
		</g>
	</g>
</g>
</svg>
