<?xml version="1.0" encoding="utf-8"?>
<!-- Generator: Adobe Illustrator 27.3.1, SVG Export Plug-In . SVG Version: 6.00 Build 0)  -->
<svg version="1.1" id="Layer_1" xmlns="http://www.w3.org/2000/svg" xmlns:xlink="http://www.w3.org/1999/xlink" x="0px" y="0px"
	 viewBox="0 0 701 410" style="enable-background:new 0 0 701 410;" xml:space="preserve">
<style type="text/css">
	.st0{fill:#333333;}
	.st1{fill:url(#SVGID_1_);}
	.st2{fill:url(#SVGID_00000107567765949370338320000003408630052566084527_);}
	.st3{fill:url(#SVGID_00000057856519661585435530000018391674748119505075_);}
	.st4{fill:url(#SVGID_00000182526104186024366980000004561926057705587848_);}
	.st5{fill:url(#SVGID_00000056404587157641307980000008136713148225001390_);}
	.st6{fill:url(#SVGID_00000101061288229794222340000009658169802238788253_);}
	.st7{fill-rule:evenodd;clip-rule:evenodd;fill:url(#SVGID_00000082360092585157959950000015520623530268184216_);}
	.st8{fill:url(#SVGID_00000003793656736096219590000011985961237482256557_);}
	.st9{fill:url(#SVGID_00000147935685443795352180000009962118519540283830_);}
	.st10{fill:#252525;}
	.st11{fill:url(#SVGID_00000068673018973167526510000010666915963264876932_);}
</style>
<g>
	<g>
		<path class="st0" d="M244.7,409.29c-14.43,0-29.21-2.14-44.32-6.44c-54.95-15.07-94.17-53.94-116.56-115.52
			c-11.3-31.74-14.35-71-8.59-110.56c5.75-39.49,19.93-76.88,39.92-105.3c13.99-19.86,46.88-55.07,80.13-70.66l5.09-2.39l-3.95,3.99
			C142.34,57.04,135.2,154.04,134.3,182.5v61.89c2.95,72.79,23.77,119.99,61.87,140.27c18.99,9.75,64.79,15.48,82.34,7.89l6.83-2.73
			V51.44l-26.73,14.75v205.94l0.05,3.15c0.51,29.39,0.76,44.15-32.76,62.61c-11.1,6.59-15.5,7.19-22.17,8.1
			c-2.92,0.4-6.23,0.85-10.78,1.91l-2.21,0.52l1.11-1.98c8.68-15.44,10.26-20.65,11.26-37.21l0-216.27l-8.97,4.27l-13.32,6.66V92.73
			l61.95-32.47c22.25-11.12,39.48-21.16,42.55-22.96V0.71h9.92v30.93l3.44-2.06c14.37-8.35,29.22-16.97,43.5-27.68l0.54-0.4
			l0.58,0.35c66.63,40.09,83.64,101.75,86.17,146.41c2.28,37.84-3,78.62-14.84,114.84c-15.02,45.91-39.48,82.7-72.7,109.37
			C311.87,396.97,279.29,409.29,244.7,409.29z M191.06,5.15c-31.13,16.44-61.12,48.79-74.27,67.47
			c-41.27,58.68-54.34,148.69-31.08,214.04c22.16,60.93,60.92,99.38,115.22,114.27c50.64,14.39,97.67,4.29,139.76-30.02
			c70.47-56.57,91.04-152.04,86.8-222.53c-2.5-44.06-19.22-104.82-84.62-144.46c-14.21,10.59-28.91,19.13-43.14,27.4l-6.46,3.87
			V2.71h-5.92v35.72l-0.49,0.29c-0.18,0.11-18.64,11.06-43.15,23.31l-60.86,31.9v6.69l10.44-5.22l11.85-5.64v219.5
			c-0.97,16.11-2.59,22.02-10.43,36.18c3.54-0.75,6.3-1.12,8.77-1.46c6.42-0.87,10.66-1.45,21.44-7.85
			c32.5-17.9,32.25-32.25,31.76-60.84l-0.05-3.17V65.01l30.73-16.95v343.12l-8.06,3.22c-19.17,8.29-66.42,1.08-84.03-7.96
			c-38.79-20.64-59.96-68.42-62.95-142l0-61.98C133.18,154.53,140.04,60.92,191.06,5.15z M293.26,388.91V281.62l0.91-0.09
			c3.56-0.34,6.29-0.97,9.18-1.64c5.35-1.24,11.41-2.65,24.11-2.32c10.12,0,15.57,1.53,18.19,2.27c0.34,0.1,0.63,0.18,0.87,0.24
			l0.2,0.06c6.96,1.98,16.38,5.13,17.84,9.51l0.08,0.25l-0.05,0.26c-7.77,38.87-20.12,81.69-68.52,97.83L293.26,388.91z
			 M295.26,283.43v102.71l0.17-0.06c47.26-15.75,59.46-57.79,67.13-96.04c-0.8-1.79-4.37-4.56-16.4-7.99l-0.17-0.05
			c-0.22-0.05-0.53-0.14-0.89-0.24c-2.53-0.71-7.8-2.2-17.66-2.2h-0.03c-12.46-0.32-18.13,1-23.62,2.27
			C301.09,282.47,298.52,283.07,295.26,283.43z M365.22,278.33l-0.93-0.3c-24.09-7.69-44.97-8.57-69.8-2.95l-1.22,0.28v-124.7
			l1.11,0.13c3.82,0.43,7.53,0.9,11.12,1.35c20.96,2.63,39.06,4.9,61.29-1.81l0.98-0.3l0.27,0.99c9.79,36.06,8.64,93.94-2.5,126.39
			L365.22,278.33z M324.76,269.46c12.92,0,25.56,2.11,39.19,6.37c10.64-32,11.73-87.85,2.41-123.3c-22.18,6.48-40.25,4.2-61.12,1.58
			c-3.23-0.41-6.56-0.82-9.98-1.22v119.96C305.59,270.6,315.25,269.46,324.76,269.46z M332.1,148.62c-11.48,0-21.95-1.89-31.74-3.66
			c-2.12-0.38-4.21-0.76-6.27-1.11l-0.83-0.14V45.19l16.96-9.01l2.99,2.39c27.42,26.46,46.02,61.92,53.85,102.62l0.16,0.83
			l-0.79,0.3C353.98,147.04,342.61,148.62,332.1,148.62z M295.26,142.02c1.8,0.31,3.62,0.64,5.46,0.97
			c18.3,3.31,39.03,7.06,64.22-2.26c-7.84-39.95-26.17-74.74-53.04-100.67L310,38.56l-14.74,7.83V142.02z"/>
	</g>
	<g>
		<path class="st0" d="M595.14,405.43l-0.73-0.39c-24.37-12.85-28.11-19.2-37.74-40.94h-2.01L511.68,404l-0.58-0.22
			c-39.95-15.24-61.17-36.99-63.09-64.63c-1.74-29.98,15.32-58.56,48.04-80.53v-1.76l-10.29-14.15c-4.72-6-9.58-12.2-14.8-18.28
			l-5.71-7.47c-0.86-1.28-1.25-1.67-1.66-2.08c-0.46-0.46-0.94-0.94-1.87-2.33c-0.54-0.72-0.89-1.34-1.22-1.94
			c-0.48-0.85-0.97-1.73-2.21-3.22l-0.13-0.19c-1.3-2.59-2.29-4.98-2.29-10.05v-0.65l0.59-0.27c17.71-7.97,23.21-11.94,42.08-30.38
			l1.09-1.07l0.54,1.43c0.32,0.83,0.64,1.69,0.96,2.56c4.54,12.13,10.76,28.75,24.18,33.09c6,2,13.76-0.6,24.44-8.16
			c10.71-7.27,21.66-20.16,26.33-25.66c0.6-0.71,1.09-1.29,1.45-1.69l1.16-1.32l0.55,1.67c8.44,25.76,13.67,29.22,37.29,24.66
			l1.19-0.23v1.21c0,4.74-4.42,10.05-8.55,14.64c-2.44,2.61-4.59,3.83-6.32,4.8c-2.68,1.51-3.91,2.2-3.91,6.76v88.66
			c0,1.26-0.04,2.8-0.07,4.55c-0.31,13.42-0.87,38.39,11.42,46.59l0.04,0.03c3.25,2.44,6,2.86,17.38,3.73l1.88,0.14L595.14,405.43z
			 M553.86,362.11h4.1l0.26,0.6c9.7,21.94,12.96,27.76,36.38,40.19l31.06-38.93c-10.12-0.81-13.09-1.39-16.53-3.96
			c-13.18-8.82-12.6-34.49-12.29-48.29c0.04-1.73,0.07-3.25,0.07-4.5v-88.66c0-5.73,2.07-6.89,4.93-8.5
			c1.61-0.91,3.61-2.03,5.83-4.41c3.73-4.15,7.22-8.45,7.91-12.06c-24.08,4.42-29.86-1.14-37.71-24.56
			c-0.09,0.11-0.19,0.22-0.28,0.33c-4.73,5.57-15.79,18.6-26.71,26.01c-11.23,7.96-19.56,10.63-26.21,8.42
			c-14.33-4.64-20.74-21.78-25.43-34.29c-0.14-0.38-0.28-0.75-0.42-1.12c-17.81,17.35-23.97,21.75-40.96,29.43
			c0.07,4.14,0.85,6.07,2.02,8.41c1.3,1.58,1.86,2.56,2.34,3.43c0.33,0.59,0.62,1.1,1.11,1.76c0.85,1.27,1.24,1.66,1.65,2.08
			c0.46,0.46,0.94,0.94,1.87,2.34l5.64,7.37c5.21,6.07,10.09,12.29,14.81,18.29l10.73,14.75v3.48l-0.45,0.3
			c-32.87,21.91-49.33,49.24-47.6,79.03c1.85,26.65,22.45,47.74,61.23,62.66L553.86,362.11z M539.16,366.39
			c-8.62,0-19.43-4.29-24.7-7.22c-17.56-10.54-28.03-29.31-28.03-50.23c0.43-12.15,1.63-21.05,14.56-42.44l0.29-0.48h0.56
			c3.08,0,3.81,0.64,5.46,2.5c0.81,0.91,1.92,2.15,3.92,3.85c3.44,3.44,5.54,6.79,6.67,8.59c0.2,0.32,0.37,0.59,0.51,0.79
			l14.09,17.41l2.09-2.09l-58.42-75.73l-2.65-3.1l-5.46-7.94l3.21-1.6l0.44,0.2c18.9,8.69,39.17,7.72,63.82-3.07l0.67-0.29
			l0.48,0.54c2.49,2.8,6.19,5.04,9.76,7.19c6.28,3.79,12.76,7.71,12.76,14.87h-0.07c0.22,2.11,0.14,11.37-0.65,56.74
			c-0.49,28.22-1.03,56.4-1.03,56.4c0,11.39-0.45,17.6-10.11,23.12C545.15,365.82,542.3,366.39,539.16,366.39z M502.41,268.03
			c-12.4,20.63-13.56,29.26-13.97,40.96c0,20.17,10.11,38.3,27.03,48.46c8.43,4.69,24.09,9.62,30.82,5.26
			c8.78-5.02,9.15-10.2,9.15-21.43c0.7-36.2,1.92-103.65,1.8-112.12h-0.05v-1c0-6.03-5.73-9.49-11.8-13.16
			c-3.48-2.1-7.07-4.27-9.73-7.04c-24.72,10.68-45.21,11.62-64.36,2.97l-0.29,0.15l4.12,6l2.59,3.02l59.53,77.17l-4.9,4.9
			l-15.55-19.21c-0.2-0.29-0.38-0.57-0.59-0.92c-1.08-1.73-3.1-4.95-6.33-8.18c-2.05-1.73-3.21-3.03-4.06-3.99
			C504.55,268.44,504.24,268.08,502.41,268.03z"/>
	</g>
</g>
</svg>
