<?xml version="1.0" encoding="utf-8"?>
<!-- Generator: Adobe Illustrator 27.3.1, SVG Export Plug-In . SVG Version: 6.00 Build 0)  -->
<svg version="1.1" id="Layer_1" xmlns="http://www.w3.org/2000/svg" xmlns:xlink="http://www.w3.org/1999/xlink" x="0px" y="0px"
	 viewBox="0 0 701 410" style="enable-background:new 0 0 701 410;" xml:space="preserve">
<style type="text/css">
	.st0{fill:#333333;}
	.st1{fill:url(#SVGID_1_);}
	.st2{fill:url(#SVGID_00000062894266527757254670000014222727834261150109_);}
	.st3{fill:url(#SVGID_00000145046060888776686930000007231325225259238036_);}
	.st4{fill:url(#SVGID_00000171715943236177535430000000650520158367463562_);}
	.st5{fill:url(#SVGID_00000179620308006229819720000014818189032351381398_);}
	.st6{fill:url(#SVGID_00000090996748559909789820000004213467665194169508_);}
	.st7{fill-rule:evenodd;clip-rule:evenodd;fill:url(#SVGID_00000135677562830275180070000012064692277762424232_);}
	.st8{fill:url(#SVGID_00000146494928882770916050000000638555421669867959_);}
	.st9{fill:url(#SVGID_00000160878581974541876590000014132556336449512587_);}
	.st10{fill:#252525;}
	.st11{fill:url(#SVGID_00000168079791511359017700000003516778493151604100_);}
</style>
<g>
	<g>
		<g>
			<path class="st0" d="M387.14,403.1H188.28v-16.65h56.13l-39.47-114.42H103.34L63.87,386.44h54.96v16.65H0v-16.65h42.8
				L180.54,5.96h19.99l0.24,0.65l140.32,379.83h46.05V403.1z M190.28,401.1h194.86v-12.65h-45.45l-0.48-1.31L199.13,7.96h-17.19
				L44.21,388.44H2v12.65h114.83v-12.65H61.07l40.85-118.42h104.45l0.46,1.35l40.39,117.07h-56.93V401.1z M201.67,257.29h-95.64
				l45.85-132.33h3.93l0.47,1.34L201.67,257.29z M108.84,255.29h90.02l-44.47-128.33h-1.08L108.84,255.29z"/>
		</g>
	</g>
	<g>
		<g>
			<path class="st0" d="M492.15,409.67c-27.27,0-48.48-7.93-63.04-23.57c-14.53-15.61-21.9-37.38-21.9-64.7
				c0-10.55,1.4-20.19,4.16-28.65c2.68-8.2,6.6-15.01,11.66-20.24c5.06-5.23,11.23-9.91,18.32-13.91c7.34-4.13,15.38-7.3,23.9-9.41
				c8.28-2.15,17.37-4.31,26.99-6.6l1.32-0.31c9.46-2.25,20.08-4.35,32.48-6.41c22.65-4.92,40.82-10.37,55.54-16.66h0v-34.48
				c0-14.39-3.45-25.43-10.24-32.81c-6.77-7.35-19.77-11.08-38.64-11.08c-13.98,0-24.35,2.52-30.81,7.5
				c-6.53,5.02-10.15,11.01-11.08,18.32c-0.95,7.54-1.6,14.91-1.92,21.9c-0.33,7.25-2.93,13.5-7.74,18.57
				c-4.82,4.98-13.02,7.5-24.4,7.5c-10.15,0-17.86-2.52-22.93-7.5c-5.06-4.97-7.63-12.54-7.63-22.48c0-11.47,3.56-21.47,10.58-29.73
				c6.96-8.28,16.29-14.64,27.73-18.9c11.79-4.35,22.87-7.35,33.89-9.16c11.02-1.82,22.23-2.75,33.31-2.75
				c16.23,0,30.44,0.48,42.22,1.42c11.27,0.9,23.15,3.06,35.31,6.41c11.93,3.31,21.56,7.99,28.64,13.91
				c6.94,5.87,12.74,14.08,17.24,24.39c4.26,10.45,6.42,23.17,6.42,37.82v131.66c0,9.2,0.63,17,1.87,23.17
				c1.24,6.18,3.13,10.9,5.62,14.05c2.48,3.14,6.43,5.52,11.74,7.08c5.07,1.48,11.54,2.27,19.24,2.33l0.99,0.01v16.65l-0.92,0.08
				c-26.49,2.16-47.11,3.25-61.29,3.25c-17.72,0-30.89-2.8-39.14-8.33c-8.33-5.58-13.85-16.23-16.41-31.64l-1.08,0
				C572.23,395.11,541.94,409.67,492.15,409.67z M532.7,138.87c19.72,0,32.84,3.83,40.11,11.72c7.15,7.76,10.77,19.25,10.77,34.17
				v35.8l-1.22,0.52c-14.84,6.34-33.13,11.82-55.9,16.77c-12.44,2.08-23.02,4.16-32.44,6.4l-1.32,0.31
				c-9.61,2.29-18.69,4.44-26.96,6.59c-8.37,2.07-16.24,5.17-23.42,9.22c-6.92,3.9-12.93,8.46-17.86,13.55
				c-4.91,5.08-8.57,11.44-11.2,19.47c-2.7,8.26-4.06,17.68-4.06,28.03c0,26.81,7.19,48.12,21.36,63.34
				c14.17,15.21,34.88,22.93,61.58,22.93c48.85,0,78.5-14.12,88.13-41.96l0.47-1.35h4.2l0.28,1.67
				c2.46,14.85,7.69,25.05,15.54,30.31c7.91,5.3,20.71,7.99,38.03,7.99c13.96,0,34.21-1.07,60.21-3.17v-12.83
				c-7.45-0.12-13.77-0.93-18.8-2.4c-5.72-1.68-10.01-4.29-12.75-7.76c-2.68-3.4-4.71-8.41-6.01-14.9
				c-1.27-6.3-1.91-14.23-1.91-23.57V208.07c0-14.39-2.11-26.85-6.26-37.04c-4.36-10.01-9.98-17.97-16.68-23.64
				c-6.86-5.73-16.24-10.27-27.89-13.51c-12.04-3.32-23.79-5.46-34.93-6.35c-11.73-0.94-25.88-1.41-42.06-1.41
				c-10.97,0-22.07,0.92-32.98,2.72c-10.9,1.79-21.86,4.75-33.52,9.06c-11.11,4.14-20.16,10.3-26.89,18.31
				c-6.71,7.89-10.11,17.46-10.11,28.44c0,9.39,2.37,16.48,7.03,21.06c4.68,4.59,11.92,6.92,21.53,6.92
				c10.82,0,18.54-2.32,22.96-6.88c4.46-4.7,6.88-10.51,7.19-17.27c0.32-7.05,0.97-14.47,1.93-22.06
				c0.98-7.75,4.96-14.37,11.84-19.65C507.59,141.45,518.07,138.87,532.7,138.87z M528.29,385.11c-14.32,0-25.24-4.74-32.46-14.09
				c-7.09-9.18-10.68-23.05-10.68-41.2c0-24.41,3.74-41.77,11.42-53.09c7.62-11.22,19.9-19.79,36.49-25.48l0.08-0.03l50.44-18.19
				v50.65c0,9.28-0.08,16.95-0.25,23.45c-0.16,6.06-1.26,14.42-3.37,25.55c-2.15,10.92-4.85,19.45-8.26,26.11
				c-3.48,6.79-9.01,12.91-16.44,18.2C547.71,382.38,538.63,385.11,528.29,385.11z M533.85,253.1l-0.07,0.03
				c-16.21,5.54-28.17,13.86-35.55,24.73c-7.35,10.82-11.08,28.3-11.08,51.96c0,17.7,3.45,31.16,10.26,39.98
				c6.81,8.83,17.2,13.31,30.87,13.31c9.92,0,18.6-2.61,25.82-7.75c7.17-5.11,12.49-10.99,15.82-17.49
				c3.32-6.48,5.97-14.85,8.08-25.57c2.08-11.02,3.17-19.28,3.33-25.23c0.17-6.49,0.25-14.14,0.25-23.4v-47.8L533.85,253.1z"/>
		</g>
	</g>
</g>
</svg>
