<?xml version="1.0" encoding="utf-8"?>
<!-- Generator: Adobe Illustrator 27.3.1, SVG Export Plug-In . SVG Version: 6.00 Build 0)  -->
<svg version="1.1" id="Layer_1" xmlns="http://www.w3.org/2000/svg" xmlns:xlink="http://www.w3.org/1999/xlink" x="0px" y="0px"
	 viewBox="0 0 701 410" style="enable-background:new 0 0 701 410;" xml:space="preserve">
<style type="text/css">
	.st0{fill:#333333;}
	.st1{fill:url(#SVGID_1_);}
	.st2{fill:url(#SVGID_00000105406755793483223960000014645245992186121888_);}
	.st3{fill:url(#SVGID_00000165947693134702507000000013088968586395373498_);}
	.st4{fill:url(#SVGID_00000174601578632493817400000018174199462100783001_);}
	.st5{fill:url(#SVGID_00000066515461612064496950000009615314455119527856_);}
	.st6{fill:url(#SVGID_00000127038157467873390180000003365593238227523211_);}
	.st7{fill-rule:evenodd;clip-rule:evenodd;fill:url(#SVGID_00000080922325670710447270000017585056474940855196_);}
	.st8{fill:url(#SVGID_00000134214362647637076160000005974904681862374032_);}
	.st9{fill:url(#SVGID_00000126297504413631094030000012622282114776755135_);}
	.st10{fill:#252525;}
	.st11{fill:url(#SVGID_00000152228895882914223730000011886490283752446632_);}
</style>
<linearGradient id="SVGID_1_" gradientUnits="userSpaceOnUse" x1="52.7201" y1="205" x2="648.28" y2="205">
	<stop  offset="0" style="stop-color:#009FFF"/>
	<stop  offset="1" style="stop-color:#1E77ED"/>
</linearGradient>
<path class="st1" d="M188.05,408.29c-88.4,0-135.33-69.27-135.33-133.61c0-49.84,28.19-96.76,88-105.82
	c4.53-0.81,9.16-1.21,13.69-1.21c35.64,0,67.66,21.14,70.99,56.08l0.4,7.45c0,35.74-26.58,54.77-53.16,54.77
	c-19.13,0-38.56-10.37-47.73-31.52c-2.92-6.24-4.13-12.89-4.13-19.94c0-13.29,4.93-26.98,14.5-36.55
	c-21.14,7.45-31.52,27.39-31.52,48.53c0,3.73,0.4,7.05,0.81,10.77c5.84,34.84,37.36,55.18,69.27,55.18
	c12.49,0,25.27-3.32,36.55-10.37c34.84-22.05,50.65-78.03,50.65-132.41c0-19.53-2.11-38.16-5.84-55.58
	c-22.45,19.13-43.6,26.18-62.23,26.18c-31.52,0-55.18-21.14-61.42-41.08c-2.52-7.45-3.32-15-3.32-21.55
	c0-38.16,34.03-63.94,72.6-63.94c26.58,0,55.58,12.08,77.23,39.87c30.71-22.05,70.08-51.85,110.76-51.85h2.52
	c30.31,0.4,54.37,17.02,63.94,39.07c3.32,7.85,5.03,16.21,5.03,24.87c0.4,60.61-71.79,85.08-97.57,44
	c12.49-2.52,17.02-36.55-15.41-39.47c-15.3-1.21-33.63,4.93-52.26,16.21c17.82,34.84,28.6,80.15,31.11,119.52
	c20.74-2.92,42.29-10.37,58.5-14.5l3.73-0.4c12.08,0,17.82,16.61,17.82,34.44c0,19.13-7.05,38.56-21.55,38.56h-2.11
	c-18.63-2.52-41.48-10.37-55.58-13.69c-5.34,80.75-49.74,156.77-136.94,157.98H188.05z M242.42,73.3
	c-9.97-21.14-24.87-28.6-35.64-28.6c-8.26,0-14.1,4.13-14.1,9.97c0,2.11,0.81,4.13,2.52,6.65c4.93,6.24,17.02,13.69,33.63,13.69
	C232.85,75.01,237.38,74.61,242.42,73.3z M621.19,357.73h27.09v26.71h-60.62v-23.68c-7.2,9.22-16.1,16.2-26.71,20.93
	s-22.61,7.1-36,7.1c-25.89,0-47.59-8.93-65.08-26.81c-17.49-17.87-26.24-40-26.24-66.4c0-26.4,8.78-48.59,26.33-66.59
	c17.55-18,39.22-27,64.98-27c13.01,0,24.72,2.34,35.14,7.01c10.42,4.67,19.61,11.68,27.57,21.03v-23.3h60.62v26.71h-27.09V357.73z
	 M468.68,295.59c0,18.95,5.81,34.61,17.43,46.98c11.62,12.38,26.08,18.57,43.38,18.57c17.3,0,31.73-6.19,43.29-18.57
	c11.56-12.38,17.33-28.04,17.33-46.98s-5.78-34.54-17.33-46.79c-11.56-12.25-25.99-18.38-43.29-18.38
	c-17.81,0-32.4,6.09-43.76,18.28C474.36,260.89,468.68,276.52,468.68,295.59z"/>
</svg>
