<?xml version="1.0" encoding="utf-8"?>
<!-- Generator: Adobe Illustrator 27.3.1, SVG Export Plug-In . SVG Version: 6.00 Build 0)  -->
<svg version="1.1" id="Layer_1" xmlns="http://www.w3.org/2000/svg" xmlns:xlink="http://www.w3.org/1999/xlink" x="0px" y="0px"
	 viewBox="0 0 701 410" style="enable-background:new 0 0 701 410;" xml:space="preserve">
<style type="text/css">
	.st0{fill:#333333;}
	.st1{fill:url(#SVGID_1_);}
	.st2{fill:url(#SVGID_00000128487663198603055230000008046888088449383044_);}
	.st3{fill:url(#SVGID_00000075881278238027530920000006817681842271029898_);}
	.st4{fill:url(#SVGID_00000181049845314389671690000016259935049953115573_);}
	.st5{fill:url(#SVGID_00000138536273020605914240000003734429519600862085_);}
	.st6{fill:url(#SVGID_00000123434201602814445210000004768683880222718643_);}
	.st7{fill-rule:evenodd;clip-rule:evenodd;fill:url(#SVGID_00000167361682982088619970000003220691582966917513_);}
	.st8{fill:url(#SVGID_00000026880343202224839320000001560240060057963407_);}
	.st9{fill:url(#SVGID_00000057828387485490972860000018223007792823157890_);}
	.st10{fill:#252525;}
	.st11{fill:url(#SVGID_00000060726627447242077540000005766117265945615534_);}
</style>
<linearGradient id="SVGID_1_" gradientUnits="userSpaceOnUse" x1="36.0107" y1="205" x2="664.9893" y2="205">
	<stop  offset="0" style="stop-color:#009FFF"/>
	<stop  offset="1" style="stop-color:#1E77ED"/>
</linearGradient>
<path class="st1" d="M281.62,291.74l-0.23-0.7h-0.74H118.99h-0.74l-0.23,0.71L80.62,408H36.01L171.81,2h56.76l135.39,406h-44.62
	L281.62,291.74z M268.52,255.44h1.4l-0.43-1.33L201.12,44.53l-0.97-2.96l-0.97,2.96l-68.62,209.58l-0.44,1.34h1.41H268.52z
	 M621.44,133.53l1.64,1.28v-2.09v-22.82h41.91v290.04h-41.91V280.68l-2.02-0.18c-5.37,30.74-17.6,58.41-36.52,83.04l0,0.01
	l-0.01,0.01C562.39,393.29,537.49,408,509.92,408c-39.83,0-70.33-14.66-91.8-43.94l0,0c-19.28-26.2-28.88-60.03-28.88-101.57
	c0-45.65,12.98-83.19,38.87-112.89l0,0c27.12-31.24,63.13-46.83,108.05-46.83C566.74,102.76,595.18,113.06,621.44,133.53
	L621.44,133.53z M622.81,176.39c-25.33-26.92-54.16-40.44-86.64-40.44c-34.03,0-60.59,13.01-79.57,39.04
	c-17.02,23.14-25.53,52.27-25.53,87.49c0,29.12,5.59,53.15,16.84,72.13l0.01,0.01c13.9,22.91,34.58,34.38,61.93,34.38
	c33.25,0,61.44-20.87,84.37-62.08l0-0.01c19.18-35.11,28.78-70.74,28.78-106.9l0-21.91L622.81,176.39z"/>
</svg>
