<?xml version="1.0" encoding="utf-8"?>
<!-- Generator: Adobe Illustrator 27.3.1, SVG Export Plug-In . SVG Version: 6.00 Build 0)  -->
<svg version="1.1" id="Layer_1" xmlns="http://www.w3.org/2000/svg" xmlns:xlink="http://www.w3.org/1999/xlink" x="0px" y="0px"
	 viewBox="0 0 701 410" style="enable-background:new 0 0 701 410;" xml:space="preserve">
<style type="text/css">
	.st0{fill:#333333;}
	.st1{fill:url(#SVGID_1_);}
	.st2{fill:url(#SVGID_00000141417687672028202250000007041330651907033477_);}
	.st3{fill:url(#SVGID_00000129884372169059469270000003918355857924572056_);}
	.st4{fill:url(#SVGID_00000142858825378125868920000017688263184208333187_);}
	.st5{fill:url(#SVGID_00000106854803985634019520000004110912990485797533_);}
	.st6{fill:url(#SVGID_00000061455446665190199650000016454004415754983300_);}
	.st7{fill-rule:evenodd;clip-rule:evenodd;fill:url(#SVGID_00000011022838362373043900000009905199065231660470_);}
	.st8{fill:url(#SVGID_00000150091135178179059610000003440975549669463447_);}
	.st9{fill:url(#SVGID_00000096770434536073282930000014449366980166242702_);}
	.st10{fill:#252525;}
	.st11{fill:url(#SVGID_00000171694984486698578920000010801754548463546781_);}
</style>
<linearGradient id="SVGID_1_" gradientUnits="userSpaceOnUse" x1="8.9131" y1="205" x2="692.0869" y2="205">
	<stop  offset="0" style="stop-color:#009FFF"/>
	<stop  offset="1" style="stop-color:#1E77ED"/>
</linearGradient>
<path class="st1" d="M319.83,408.29h-55.63V308.17h66.87h1.55l-0.65-1.41l-40.46-88.31l-0.27-0.58h-0.64H183.68h-0.64l-0.27,0.58
	l-40.35,88.31l-0.65,1.41h1.55h67.72v100.12h-55.41c-12.37,0-22.93-4.29-31.63-12.78c-8.69-8.48-13.08-18.82-13.08-31.18h-1h-1
	c0,12.37-4.29,22.71-12.97,31.18c-8.7,8.49-19.15,12.78-31.52,12.78H8.91V308.17h70.51h0.64l0.27-0.58l40.89-88.31l0.66-1.42h-1.56
	H80.76c1.43-4.39,3.9-8.53,7.52-12.34l0.62-0.66l-0.59-0.68c-3.6-4.17-6.13-8.12-7.51-11.84h52.35h0.64l0.27-0.59l39.93-88.31
	l0.64-1.41h-1.55h-36.57V1.92h55.52c12.7,0,23.36,4.29,31.83,12.87c8.48,8.59,12.77,19.04,12.77,31.3h1h1
	c0-12.26,4.29-22.71,12.98-31.3c8.7-8.59,19.15-12.88,31.52-12.88h55.63v100.12h-37.32h-1.54l0.64,1.41l39.82,88.31l0.27,0.59
	l0.65-0.01l51.29-0.52c-1.95,4.77-4.6,8.93-7.95,12.66l-0.58,0.65l0.57,0.66c3.32,3.89,5.95,7.95,7.9,12.16h-38.93h-1.56l0.66,1.42
	l41,88.31l0.27,0.58h0.64h71.9v100.02H410.5c-12.37,0-22.82-4.29-31.41-12.77c-8.58-8.47-12.76-18.81-12.76-31.19h-1h-1
	c0,12.37-4.29,22.71-12.97,31.18C342.66,404,332.2,408.29,319.83,408.29L319.83,408.29z M277.55,192.24h1.55l-0.64-1.41
	l-39.82-87.77l-0.27-0.59h-0.64h-0.53h-0.64l-0.27,0.58l-39.93,87.77l-0.64,1.41h1.55H277.55z M545.48,408.29
	c12.37,0,22.82-4.29,31.51-12.98c8.69-8.7,12.98-19.14,12.98-31.51h1h1c0,12.36,4.39,22.81,13.09,31.51
	c8.69,8.69,19.25,12.98,31.62,12.98h55.41V308.06h-43.53c-8.17,0-15.27-2.77-21.14-8.41c-5.86-5.64-8.87-12.54-8.87-20.63v-22.48
	v-37.25v-1h1h21.36c-1.36-4.2-3.92-8.38-7.56-12.7l-0.54-0.64l0.54-0.64c3.63-4.3,6.11-8.49,7.54-12.7h-21.33h-1v-1V1.71h-55.16
	v5.64c0,12.89-4.49,23.85-13.57,32.92c-9.07,9.07-20.03,13.57-32.92,13.57h-27.05v47.99h44.5c8.07,0,14.96,2.78,20.62,8.43
	c5.65,5.65,8.43,12.55,8.43,20.61v59.73v1h-1h-21.15c1.36,4.22,3.92,8.48,7.56,12.69l0.56,0.64l-0.55,0.65
	c-3.62,4.29-6.1,8.55-7.53,12.7h21.11h1v1v59.84c0,8.07-2.78,14.96-8.43,20.62c-5.65,5.65-12.55,8.43-20.62,8.43h-44.5v100.12
	H545.48L545.48,408.29z"/>
</svg>
