<?xml version="1.0" encoding="utf-8"?>
<!-- Generator: Adobe Illustrator 27.3.1, SVG Export Plug-In . SVG Version: 6.00 Build 0)  -->
<svg version="1.1" id="Layer_1" xmlns="http://www.w3.org/2000/svg" xmlns:xlink="http://www.w3.org/1999/xlink" x="0px" y="0px"
	 viewBox="0 0 701 410" style="enable-background:new 0 0 701 410;" xml:space="preserve">
<style type="text/css">
	.st0{fill:#333333;}
	.st1{fill:url(#SVGID_1_);}
	.st2{fill:url(#SVGID_00000008863003950668646450000001927718561952051610_);}
	.st3{fill:url(#SVGID_00000027599767594796137850000008389601034591084190_);}
	.st4{fill:url(#SVGID_00000029039771105538462890000015424992414843061436_);}
	.st5{fill:url(#SVGID_00000103245381977350000710000000183644391330835387_);}
	.st6{fill:url(#SVGID_00000106120512730931103500000009701015266016471735_);}
	.st7{fill-rule:evenodd;clip-rule:evenodd;fill:url(#SVGID_00000057830091824379316870000000129334130253156258_);}
	.st8{fill:url(#SVGID_00000177444368685274714400000012590039330332552606_);}
	.st9{fill:url(#SVGID_00000036251628815357321560000002493998755823051667_);}
	.st10{fill:#252525;}
	.st11{fill:url(#SVGID_00000103947310249321453100000016247494054045879956_);}
</style>
<g>
	<g>
		<g>
			<path class="st0" d="M361.93,409.29c-18.29,0-36.22-9.49-53.3-28.2l-0.5-0.54l7.78-13.36l0.85,0.47
				c6.89,3.78,13.88,5.7,20.79,5.7c13.97,0,26.91-7.65,38.46-22.74c11.57-15.12,21.36-35.43,29.08-60.36H229.86l-21.89,32.54
				c-16.22,23.99-34.9,41.68-55.54,52.59l-0.05,0.02c-20.64,10.98-44.08,16.54-69.7,16.54c-25.52,0-44.44-4.95-56.22-14.71
				C14.68,367.49,8.7,357.02,8.7,346.14c0-10.94,3.27-19.84,9.72-26.46c6.45-6.62,14.62-9.98,24.26-9.98
				c9.73,0,16.95,3.1,21.47,9.22c4.6,6.11,6.93,14.38,6.93,24.6c0,5.09-1.22,9.61-3.61,13.44c-2.4,3.83-6.05,7.07-10.84,9.64
				c0.25,0.88,0.89,1.77,1.89,2.65c1,0.88,2.39,1.75,4.11,2.59c3.45,1.68,8.31,2.54,14.45,2.54c6.14,0,12.11-0.77,17.75-2.28
				c5.7-1.53,12.36-4.89,19.78-9.98c7.42-5.14,15.32-12.96,23.5-23.25c17.53-22.05,39.71-56.33,65.94-101.87
				c26.44-45.76,52.35-84.13,77.02-114.04c25-30.31,55.15-57.76,89.61-81.58c-10.17-6.67-22.94-12.16-37.95-16.31
				c-15.1-4.1-32.05-6.17-50.38-6.17c-18.62,0-38.22,3.36-58.25,9.98C204.05,35.5,186.78,44.63,172.8,56
				c-13.94,11.41-25.86,24.97-35.42,40.32c-18.62,29.66-28.07,64.7-28.07,104.15c0,26.73,4.57,53.5,13.57,79.55l0.29,0.84
				l-17.33,8.29l-0.47-0.77c-19.55-31.84-29.46-66.08-29.46-101.78c0-24.23,4.86-47.78,14.46-70c9.66-22.28,23.28-42.22,40.5-59.26
				c17.28-17.19,39.52-31.07,66.11-41.26c26.66-10.21,56.21-15.39,87.84-15.39c23.06,0,39.78,1.62,49.71,4.82l19.19,5.92
				c6.27,1.9,13.71,5.44,22.74,10.82c4.36,2.62,7.65,4.61,9.88,5.96c1.12,0.68,1.96,1.2,2.54,1.55c0.3,0.18,0.52,0.32,0.67,0.42
				l0.27,0.18c16.77-7.89,31.58-13.15,44.04-15.64c12.34-2.38,26.5-3.6,42.1-3.64l0.6,0l6.68,12.51l-1.65,0.02
				c-27.5,0.26-52.75,7.08-75.02,20.28c21.08,18.39,36.98,42.28,47.25,71.01c10.27,28.69,15.47,60.64,15.47,94.94
				c0,34.27-4.95,67.35-14.71,98.32c-9.76,30.97-22.93,55.83-39.14,73.89c-16.22,18.06-34.05,27.22-53.01,27.22
				C362.25,409.29,362.09,409.29,361.93,409.29z M310.6,380.28c16.54,17.93,33.81,27.01,51.33,27.01c0.15,0,0.31,0,0.46,0
				c18.38,0,35.72-8.94,51.54-26.56c16.02-17.84,29.05-42.46,38.72-73.15c9.7-30.77,14.62-63.65,14.62-97.72
				c0-34.07-5.17-65.79-15.35-94.26c-10.16-28.4-25.87-52.01-46.69-70.18l-2.08-1.82l2.38-1.41c22.14-13.12,47.15-20.03,74.38-20.54
				l-4.56-8.55c-15.23,0.06-29.06,1.27-41.11,3.6c-12.29,2.46-26.95,7.67-43.58,15.49l-1.27,0.6l-0.93-0.91
				c-0.14-0.09-0.35-0.22-0.63-0.4c-0.57-0.35-1.42-0.87-2.53-1.54c-2.23-1.35-5.52-3.34-9.87-5.96
				c-8.88-5.3-16.17-8.77-22.29-10.62l-19.2-5.92c-9.75-3.14-26.27-4.73-49.12-4.73c-31.38,0-60.69,5.13-87.12,15.25
				c-26.33,10.08-48.33,23.81-65.41,40.81c-17.04,16.87-30.52,36.6-40.07,58.64c-9.48,21.96-14.29,45.24-14.29,69.2
				c0,35.04,9.65,68.67,28.69,99.97l14.1-6.74c-8.89-26-13.39-52.7-13.39-79.36c0-39.83,9.54-75.22,28.37-105.21
				c9.68-15.53,21.74-29.27,35.85-40.81c14.18-11.53,31.66-20.78,51.95-27.49c20.23-6.69,40.04-10.08,58.87-10.08
				c18.51,0,35.64,2.1,50.91,6.24c15.23,4.21,28.19,9.79,38.53,16.57l2.48,1.63l-2.44,1.69c-34.31,23.71-64.33,51.03-89.2,81.21
				c-24.59,29.83-50.44,68.11-76.83,113.77c-26.28,45.62-48.52,79.98-66.1,102.11c-8.3,10.44-16.35,18.39-23.93,23.65
				c-7.62,5.22-14.48,8.67-20.4,10.26c-5.81,1.56-11.96,2.35-18.27,2.35c-6.54,0-11.55-0.9-15.33-2.74
				c-1.88-0.92-3.41-1.89-4.55-2.88c-1.3-1.13-2.14-2.35-2.5-3.61l-0.44-1.55l1.42-0.76c4.49-2.4,7.88-5.41,10.09-8.94
				c2.2-3.51,3.31-7.67,3.31-12.38c0-9.77-2.2-17.65-6.53-23.4c-4.19-5.67-10.69-8.42-19.88-8.42c-9.09,0-16.77,3.15-22.83,9.37
				c-6.16,6.32-9.16,14.52-9.16,25.07c0,10.26,5.73,20.21,17.03,29.57c11.41,9.46,29.9,14.25,54.94,14.25
				c25.3,0,48.45-5.5,68.81-16.34l0.05-0.03c20.33-10.76,38.76-28.22,54.77-51.91l22.49-33.43h179.02l-0.8,2.59
				c-7.79,25.16-17.69,45.67-29.4,60.98c-11.95,15.61-25.42,23.52-40.05,23.52c-6.96,0-13.99-1.84-20.9-5.48L310.6,380.28z
				 M411.48,275.18h-175.4l1.67-2.98c7.04-12.54,17.78-33,31.07-59.19c13.98-27.54,29.52-54.49,46.18-80.07
				c19.27-29.75,44.15-56.06,73.95-78.2l0.8-0.6l0.53,0.71l0.65-0.6l0.68,0.73c21.78,23.5,32.83,63.29,32.83,118.27
				c0,33.26-4.23,67.04-12.57,100.41L411.48,275.18z M239.49,273.18h170.43c8.3-33.21,12.51-66.83,12.51-99.92
				c0-53.89-10.64-92.97-31.62-116.18L390,57.83l-0.66-0.89c-29.25,21.87-53.69,47.8-72.66,77.09
				c-16.62,25.53-32.12,52.41-46.07,79.89C257.3,240.12,246.55,260.62,239.49,273.18L239.49,273.18z"/>
		</g>
	</g>
	<g>
		<g>
			<path class="st0" d="M624.23,390.18c-7.62,0-13.42-2.99-17.24-8.88c-3.82-5.9-5.76-14.86-5.76-26.63c0-3.32,0.12-5.95,0.37-7.86
				l-0.13-0.03c-2.77,8.68-7.79,16.45-14.94,23.11c-14.22,13.46-30.43,20.29-48.19,20.29c-17.78,0-32.26-6.14-43.03-18.26
				c-10.72-12.15-16.15-27.57-16.15-45.82c0-28.39,9.36-52.65,27.81-72.11c18.43-19.52,40.36-29.42,65.18-29.42
				c12.42,0,22.83,3.47,30.94,10.31c7.93,6.62,13.27,15.38,15.88,26.03l0.37,0l7.75-30.43h41.68l-21.13,79.88
				c-3.42,11.37-5.08,21.38-5.08,30.62c0,4.55,0.41,8.02,1.2,10.31c0.8,2.3,2.02,3.46,3.61,3.46c1.6,0,3.52-0.71,5.71-2.1
				c2.2-1.41,4.71-3.54,7.48-6.35c5.73-5.73,10.53-11.44,14.28-16.98l6.18-8.55l11.5,10.66l-0.36,0.68
				c-5.83,11.1-13.25,21.39-22.05,30.6C652.57,380.94,637.13,390.18,624.23,390.18z M600.1,344.41l3.77,0.89l-0.16,0.93
				c-0.32,1.82-0.48,4.67-0.48,8.45c0,11.38,1.83,19.98,5.44,25.54c3.47,5.36,8.56,7.97,15.56,7.97c12.34,0,27.3-9.04,44.47-26.86
				c8.49-8.88,15.67-18.8,21.36-29.47l-8.72-8.08l-4.84,6.7c-3.8,5.62-8.69,11.43-14.5,17.24c-2.86,2.91-5.5,5.14-7.82,6.62
				c-2.55,1.63-4.76,2.42-6.78,2.42c-1.74,0-4.12-0.83-5.5-4.81c-0.89-2.54-1.32-6.13-1.32-10.97c0-9.44,1.69-19.63,5.15-31.16
				l20.46-77.33h-37.53l-7.76,30.45l-3.51-0.04l-0.18-0.77c-2.44-10.57-7.62-19.22-15.4-25.71c-7.75-6.54-17.73-9.85-29.66-9.85
				c-24.25,0-45.69,9.69-63.73,28.79c-18.1,19.08-27.27,42.88-27.27,70.74c0,17.75,5.26,32.72,15.65,44.5
				c10.52,11.83,24.1,17.58,41.53,17.58c17.23,0,32.98-6.64,46.81-19.74c7.14-6.65,12.08-14.43,14.68-23.13L600.1,344.41z
				 M556.77,368.17c-11.23,0-19.68-3.87-25.13-11.49c-5.29-7.41-7.98-17.25-7.98-29.23c0-11.88,2.46-24.13,7.32-36.41
				c4.87-12.38,11.99-23.14,21.18-31.99l0.01-0.01c9.39-8.95,19.61-13.49,30.37-13.49c9.72,0,17.14,3.5,22.05,10.4
				c4.75,6.68,7.17,16.71,7.17,29.81c0,25.89-8.33,48.52-24.76,67.26l-0.05,0.05C578.08,363.09,567.92,368.17,556.77,368.17z
				 M582.55,247.57c-10.24,0-19.99,4.35-29,12.93l-0.04,0.04c-8.94,8.6-15.91,19.13-20.67,31.24c-4.77,12.05-7.19,24.05-7.19,35.67
				c0,11.56,2.56,21,7.61,28.06c5.05,7.07,12.95,10.65,23.5,10.65c10.57,0,20.24-4.86,28.74-14.46l0.04-0.05
				c16.07-18.35,24.22-40.52,24.22-65.89c0-12.67-2.29-22.31-6.79-28.65C598.46,250.78,591.59,247.57,582.55,247.57z"/>
		</g>
	</g>
</g>
</svg>
