<?xml version="1.0" encoding="utf-8"?>
<!-- Generator: Adobe Illustrator 27.3.1, SVG Export Plug-In . SVG Version: 6.00 Build 0)  -->
<svg version="1.1" id="Layer_1" xmlns="http://www.w3.org/2000/svg" xmlns:xlink="http://www.w3.org/1999/xlink" x="0px" y="0px"
	 viewBox="0 0 701 410" style="enable-background:new 0 0 701 410;" xml:space="preserve">
<style type="text/css">
	.st0{fill:#333333;}
	.st1{fill:url(#SVGID_1_);}
	.st2{fill:url(#SVGID_00000023992337692949418320000012118575541070947517_);}
	.st3{fill:url(#SVGID_00000183958310383461585190000018320383257905022903_);}
	.st4{fill:url(#SVGID_00000138556292152407725130000011740294930556740771_);}
	.st5{fill:url(#SVGID_00000031896330506730622670000006559617567297013913_);}
	.st6{fill:url(#SVGID_00000088119615005573961070000003379307646719623097_);}
	.st7{fill-rule:evenodd;clip-rule:evenodd;fill:url(#SVGID_00000060015434124186700720000004571688331631439038_);}
	.st8{fill:url(#SVGID_00000079481765470732677320000008039751541594700715_);}
	.st9{fill:url(#SVGID_00000081643044596215419390000016865911755631501236_);}
	.st10{fill:#252525;}
	.st11{fill:url(#SVGID_00000156548556768382124350000014723877801091493556_);}
</style>
<linearGradient id="SVGID_1_" gradientUnits="userSpaceOnUse" x1="106.8182" y1="205" x2="594.1818" y2="205">
	<stop  offset="0" style="stop-color:#009FFF"/>
	<stop  offset="1" style="stop-color:#1E77ED"/>
</linearGradient>
<path style="fill-rule:evenodd;clip-rule:evenodd;fill:url(#SVGID_1_);" d="M247.89,1.71c7.48,0,14.66,2.97,19.95,8.26
	c5.29,5.29,8.26,12.47,8.26,19.95v28.21h84.64c7.48,0,14.66,2.97,19.95,8.26c5.29,5.29,8.26,12.47,8.26,19.95
	c0,7.48-2.97,14.66-8.26,19.95c-5.29,5.29-12.47,8.26-19.95,8.26h-40.12c-10.06,46.94-26.42,92.31-48.64,134.86
	c8.18,9.99,16.82,19.64,25.79,28.95c2.57,2.67,4.6,5.81,5.95,9.27c1.36,3.45,2.02,7.13,1.95,10.84c-0.07,3.71-0.86,7.36-2.34,10.76
	c-1.48,3.4-3.61,6.47-6.28,9.05c-2.67,2.57-5.82,4.6-9.27,5.95c-3.45,1.35-7.13,2.02-10.84,1.95c-3.71-0.07-7.36-0.86-10.76-2.34
	c-3.4-1.48-6.47-3.61-9.04-6.28c-5.3-5.53-10.52-11.17-15.63-16.93c-24.94,37.05-54.38,70.86-87.66,100.64
	c-5.59,4.91-12.89,7.41-20.31,6.97c-7.42-0.44-14.37-3.8-19.33-9.34c-4.96-5.54-7.53-12.81-7.16-20.24
	c0.38-7.43,3.67-14.41,9.16-19.42c34.32-30.71,64.05-66.18,88.31-105.32c-15.76-22.35-29.79-45.87-41.95-70.36
	c-1.79-3.33-2.88-6.98-3.23-10.75c-0.35-3.76,0.07-7.56,1.21-11.16c1.15-3.6,3.01-6.93,5.47-9.8c2.46-2.87,5.47-5.21,8.85-6.89
	c3.38-1.68,7.07-2.67,10.84-2.9c3.77-0.23,7.55,0.3,11.11,1.56c3.56,1.26,6.84,3.22,9.63,5.77c2.79,2.55,5.04,5.63,6.62,9.06
	c6.6,13.26,13.8,26.18,21.56,38.71c11.77-26.35,21.22-53.97,28.13-82.58H135.03c-7.48,0-14.66-2.97-19.95-8.26
	c-5.29-5.29-8.26-12.47-8.26-19.95c0-7.48,2.97-14.66,8.26-19.95c5.29-5.29,12.47-8.26,19.95-8.26h84.64V29.92
	c0-7.48,2.97-14.66,8.26-19.95C233.23,4.68,240.4,1.71,247.89,1.71L247.89,1.71z M452.74,100.47c5.25,0,10.4,1.47,14.86,4.23
	c4.47,2.76,8.08,6.71,10.42,11.41l84.6,169.19c0.2,0.35,0.38,0.69,0.57,1.05l28,56c3.36,6.71,3.91,14.49,1.54,21.61
	c-2.37,7.12-7.48,13.01-14.19,16.37s-14.49,3.91-21.61,1.54c-7.12-2.37-13.01-7.48-16.37-14.19l-20.42-40.93H385.4l-20.48,40.93
	c-1.59,3.44-3.85,6.52-6.65,9.07c-2.8,2.55-6.09,4.51-9.66,5.76s-7.36,1.78-11.14,1.54c-3.78-0.24-7.47-1.23-10.86-2.93
	c-3.39-1.69-6.4-4.05-8.86-6.93c-2.46-2.88-4.32-6.23-5.46-9.84c-1.14-3.61-1.55-7.42-1.19-11.19c0.36-3.77,1.47-7.43,3.26-10.76
	l28-56l0.54-1.07l84.57-169.19c2.35-4.7,5.96-8.65,10.42-11.41C442.35,101.94,447.49,100.47,452.74,100.47L452.74,100.47z
	 M413.66,270.18h78.18L452.74,192L413.66,270.18z"/>
</svg>
