<?xml version="1.0" encoding="utf-8"?>
<!-- Generator: Adobe Illustrator 27.3.1, SVG Export Plug-In . SVG Version: 6.00 Build 0)  -->
<svg version="1.1" id="Layer_1" xmlns="http://www.w3.org/2000/svg" xmlns:xlink="http://www.w3.org/1999/xlink" x="0px" y="0px"
	 viewBox="0 0 701 410" style="enable-background:new 0 0 701 410;" xml:space="preserve">
<style type="text/css">
	.st0{fill:#333333;}
	.st1{fill:url(#SVGID_1_);}
	.st2{fill:url(#SVGID_00000106837282143184111450000014862697761238049190_);}
	.st3{fill:url(#SVGID_00000114064462903594302270000009996666307548236703_);}
	.st4{fill:url(#SVGID_00000093876195990068656140000005530755843065867927_);}
	.st5{fill:url(#SVGID_00000043421357456049326830000002432923728402586287_);}
	.st6{fill:url(#SVGID_00000139274736482780364110000016555890839910413503_);}
	.st7{fill-rule:evenodd;clip-rule:evenodd;fill:url(#SVGID_00000012468248784666884540000009533240086835971481_);}
	.st8{fill:url(#SVGID_00000040575895507201251720000014568992059733081480_);}
	.st9{fill:url(#SVGID_00000101786231800228609190000006528801021637086374_);}
	.st10{fill:#252525;}
	.st11{fill:url(#SVGID_00000125566995716721725400000011139563437185460666_);}
</style>
<g>
	<g>
		<g>
			<path class="st0" d="M532,409.13c-35.88,0-65.87-12.76-89.14-37.94c-23.28-25.5-35.08-57.09-35.08-93.88
				c0-36.79,11.8-68.38,35.07-93.88c23.27-25.5,53.27-38.43,89.15-38.43c32.97,0,60.5,10.47,81.83,31.12V152.3h86.23v249.53h-85.25
				v-28.21h-0.97C592.51,397.18,564.97,409.13,532,409.13z M532,147.01c-35.3,0-64.79,12.71-87.67,37.77
				c-22.93,25.12-34.55,56.25-34.55,92.53c0,36.28,11.62,67.41,34.55,92.53c22.88,24.74,52.37,37.29,87.67,37.29
				c32.38,0,59.42-11.73,80.36-34.85l0.59-0.66h3.86v28.21h81.25V154.3h-82.23v26.55l-3.39-3.28
				C591.5,157.29,564.43,147.01,532,147.01z M410.13,401.83h-98.41l-29.71-80.26H129.06l-29.71,80.26H0.94L163.15,0.55h84.76
				l0.25,0.62L410.13,401.83z M313.12,399.83h94.05L246.57,2.55H164.5L3.9,399.83h94.05l29.72-80.26H283.4L313.12,399.83z
				 M557.82,337.68c-18,0-32.74-5.6-43.79-16.63c-11.06-11.38-16.66-26.09-16.66-43.73c0-17.66,5.77-32.37,17.15-43.73l0.02-0.02
				c11.7-11.35,26.26-17.1,43.28-17.1c16.71,0,30.95,5.76,42.32,17.11c11.7,11.35,17.64,26.07,17.64,43.74
				c0,17.33-5.77,31.88-17.14,43.24C589.59,331.91,575.18,337.68,557.82,337.68z M515.93,234.99c-11,10.98-16.57,25.22-16.57,42.32
				s5.41,31.34,16.08,42.32c10.67,10.65,24.92,16.05,42.38,16.05c16.81,0,30.73-5.56,41.4-16.53c11-10.98,16.57-25.05,16.57-41.83
				c0-17.1-5.73-31.34-17.04-42.31c-11-10.98-24.76-16.54-40.92-16.54C541.34,218.46,527.24,224.02,515.93,234.99L515.93,234.99z
				 M253.74,243.32h-96.42l46.35-120.73h3.72L253.74,243.32z M160.24,241.32h90.6l-44.81-116.73h-0.97L160.24,241.32z"/>
		</g>
	</g>
</g>
</svg>
