<?xml version="1.0" encoding="utf-8"?>
<!-- Generator: Adobe Illustrator 27.3.1, SVG Export Plug-In . SVG Version: 6.00 Build 0)  -->
<svg version="1.1" id="Layer_1" xmlns="http://www.w3.org/2000/svg" xmlns:xlink="http://www.w3.org/1999/xlink" x="0px" y="0px"
	 viewBox="0 0 701 410" style="enable-background:new 0 0 701 410;" xml:space="preserve">
<style type="text/css">
	.st0{fill:#333333;}
	.st1{fill:url(#SVGID_1_);}
	.st2{fill:url(#SVGID_00000032629306696865313560000012743244120903660464_);}
	.st3{fill:url(#SVGID_00000128487296545412706460000016494063681918715530_);}
	.st4{fill:url(#SVGID_00000031175705101953379670000002199419917455342486_);}
	.st5{fill:url(#SVGID_00000108292669028887072170000014243363935419476616_);}
	.st6{fill:url(#SVGID_00000018236878654568912090000008575297973616944273_);}
	.st7{fill-rule:evenodd;clip-rule:evenodd;fill:url(#SVGID_00000169526032138344179640000011903028295115332775_);}
	.st8{fill:url(#SVGID_00000042011458602526040260000014022435770261477257_);}
	.st9{fill:url(#SVGID_00000026870365827137020870000013149611692334458770_);}
	.st10{fill:#252525;}
	.st11{fill:url(#SVGID_00000018948072594436639560000015148724298620930733_);}
</style>
<linearGradient id="SVGID_1_" gradientUnits="userSpaceOnUse" x1="73.3712" y1="205" x2="627.6288" y2="205">
	<stop  offset="0" style="stop-color:#009FFF"/>
	<stop  offset="1" style="stop-color:#1E77ED"/>
</linearGradient>
<path class="st1" d="M133.3,182.48v61.91c1.49,36.65,8.42,112.43,62.4,141.15c18.33,9.41,64.88,15.85,83.21,7.92l7.43-2.97
	c0,0,0-17.83,0-19.32c0-2.97,0-9.41,0-11.39c0-1.98,0-9.41,0-11.89V68.08V49.75L257.61,65.6c0,0,0,17.33,0,36.15v170.37
	c0.49,31.2,1.98,46.06-32.19,64.88c-15.85,9.41-17.83,6.44-32.69,9.91c8.91-15.85,10.4-21.3,11.39-37.64V105.72
	c0-2.48,0-14.36,0-14.36l-10.4,4.95l-11.89,5.94v-8.91l61.41-32.19c24.76-12.38,43.09-23.28,43.09-23.28V1.71h5.94h1.98v31.7
	l4.95-2.97c15.35-8.92,29.72-17.33,43.58-27.74c60.92,36.65,82.71,93.11,85.68,145.61c3.96,65.87-14.36,164.93-87.17,223.37
	c-45.57,37.15-93.61,43.58-140.66,30.21c-55.97-15.35-94.1-54.97-115.89-114.9c-23.28-65.38-9.91-156.51,31.2-214.95
	c15.35-21.79,48.04-55.47,79.74-70.33C147.17,50.74,134.79,135.43,133.3,182.48z M294.26,59.16c0,4.95,0,23.77,0,27.74V128
	c0,3.96,0,14.86,0,14.86c20.31,3.47,43.09,9.41,71.81-1.49c-7.43-38.63-25.26-74.79-53.49-102.03l-2.48-1.98l-15.85,8.42
	C294.26,45.79,294.26,57.18,294.26,59.16z M294.26,274.11c26.25-5.94,47.05-4.46,70.33,2.97c11.39-33.18,11.89-91.13,2.48-125.8
	c-26.25,7.92-46.56,3.47-72.81,0.49v118.87V274.11z M327.45,278.57c-19.32-0.49-22.78,2.97-33.18,3.96c0,0,0,8.42,0,12.38v92.62
	l1.49-0.5c47.55-15.85,59.93-57.45,67.85-97.07c-1.49-4.46-13.87-7.92-17.33-8.91C344.29,280.55,338.84,278.57,327.45,278.57z
	 M609.72,359.18c3.49,2.62,6.55,3.06,17.91,3.93l-32.76,41.05c-24.02-12.67-27.51-18.34-37.56-41.05h-3.06l-42.8,39.74
	c-33.19-12.67-60.27-32.32-62.45-63.76c-1.75-30.13,15.29-58.09,48.04-79.92v-2.62l-10.48-14.41c-4.8-6.12-9.61-12.23-14.85-18.34
	l-5.68-7.43c-1.75-2.62-1.75-1.75-3.49-4.37c-1.31-1.75-1.31-2.62-3.49-5.24c-1.31-2.62-2.18-4.8-2.18-9.61
	c17.47-7.86,23.15-11.79,42.36-30.57c4.8,12.67,10.92,31.44,25.77,36.25c6.55,2.18,14.85-0.87,25.33-8.3
	c12.23-8.3,24.89-24.02,27.95-27.51c8.3,25.33,13.54,30.14,38.43,25.33c0,4.37-4.37,9.61-8.3,13.98
	c-6.11,6.55-10.48,3.93-10.48,12.23v88.66C597.93,318.12,595.31,349.57,609.72,359.18z M535.91,206.75
	c-20.96,9.17-42.8,13.1-64.64,3.06l-1.75,0.87l4.8,6.99l2.62,3.06l58.96,76.43l-3.49,3.49l-14.85-18.34
	c-0.87-1.31-3.06-5.24-6.99-9.17c-5.68-4.8-4.37-6.11-8.73-6.11c-12.67,20.96-13.98,29.7-14.41,41.93
	c0,20.09,10.04,38.87,27.51,49.35c7.86,4.37,24.46,10.04,31.88,5.24c9.17-5.24,9.61-10.92,9.61-22.27c0,0,2.18-113.12,1.75-113.12
	C558.19,217.67,542.9,214.61,535.91,206.75z"/>
</svg>
