<?xml version="1.0" encoding="utf-8"?>
<!-- Generator: Adobe Illustrator 27.3.1, SVG Export Plug-In . SVG Version: 6.00 Build 0)  -->
<svg version="1.1" id="Layer_1" xmlns="http://www.w3.org/2000/svg" xmlns:xlink="http://www.w3.org/1999/xlink" x="0px" y="0px"
	 viewBox="0 0 701 410" style="enable-background:new 0 0 701 410;" xml:space="preserve">
<style type="text/css">
	.st0{fill:#333333;}
	.st1{fill:url(#SVGID_1_);}
	.st2{fill:url(#SVGID_00000134241838832117230350000006506939487556895379_);}
	.st3{fill:url(#SVGID_00000075863946254671754420000013142468070792062367_);}
	.st4{fill:url(#SVGID_00000111163911487460920360000009943368877194543518_);}
	.st5{fill:url(#SVGID_00000071537959891659993200000016792213240046236324_);}
	.st6{fill:url(#SVGID_00000151540398129262126500000007790347911401857455_);}
	.st7{fill-rule:evenodd;clip-rule:evenodd;fill:url(#SVGID_00000093142493003824858610000002909664455817012407_);}
	.st8{fill:url(#SVGID_00000063615118076960508810000000354849495705241760_);}
	.st9{fill:url(#SVGID_00000176004774197570759120000014905295642397202578_);}
	.st10{fill:#252525;}
	.st11{fill:url(#SVGID_00000182494608462302237510000014007083361772829591_);}
</style>
<linearGradient id="SVGID_1_" gradientUnits="userSpaceOnUse" x1="0.9998" y1="205" x2="700.0001" y2="205">
	<stop  offset="0" style="stop-color:#009FFF"/>
	<stop  offset="1" style="stop-color:#1E77ED"/>
</linearGradient>
<path class="st1" d="M361.48,351.89c0,0,0,0,0.96-0.29L361.48,351.89l0.21,0.7l0.73,0.01l44.8,0.63v39.81H257.81V352.6h49.11h1.28
	l-0.31-1.24l-25.05-99.25l-0.19-0.76h-0.78H126.36h-0.78l-0.19,0.76l-24.73,99.68l-0.31,1.24h1.28h48.79v40.12H1v-39.81l45.13-0.63
	l0.73-0.01l0.21-0.7l-0.96-0.29c0.96,0.29,0.96,0.29,0.96,0.29l0-0.01l0.01-0.03l0.03-0.11l0.13-0.44c0.12-0.39,0.29-0.98,0.53-1.75
	c0.46-1.53,1.14-3.8,2.03-6.71c1.76-5.83,4.32-14.28,7.5-24.72c6.36-20.89,15.23-49.77,25.21-81.76
	c19.98-63.98,44.46-140.34,62.49-189.93l0.48-1.31l-1.4-0.03l-32.5-0.63V9.61h92.63h92.74v34.85l-32.82,0.63l-1.4,0.03l0.48,1.32
	c18.19,49.6,42.75,125.96,62.77,189.93c10.01,31.98,18.88,60.87,25.25,81.75c3.18,10.44,5.74,18.89,7.51,24.72
	c0.88,2.92,1.56,5.18,2.03,6.71c0.23,0.77,0.41,1.35,0.52,1.75l0.13,0.44l0.03,0.11L361.48,351.89L361.48,351.89z M269.8,212.86
	l-0.37-1.27l-0.96,0.27c0.96-0.27,0.96-0.28,0.96-0.28l0,0l-0.01-0.02l-0.02-0.09l-0.1-0.34c-0.09-0.3-0.21-0.75-0.38-1.33
	c-0.33-1.16-0.83-2.87-1.45-5.05c-1.26-4.35-3.06-10.59-5.24-18.08c-4.36-14.99-10.25-35.06-16.33-55.35
	c-6.08-20.28-12.37-40.8-17.53-56.68c-2.58-7.94-4.88-14.73-6.74-19.76c-0.93-2.51-1.75-4.6-2.45-6.18c-0.35-0.79-0.67-1.46-0.96-2
	c-0.28-0.52-0.57-0.98-0.85-1.29l-0.3-0.33h-0.44h-24.73h-0.44l-0.3,0.33c-0.28,0.31-0.57,0.77-0.85,1.29
	c-0.29,0.54-0.61,1.21-0.96,2c-0.7,1.58-1.52,3.66-2.46,6.18c-1.87,5.03-4.18,11.82-6.78,19.76c-5.19,15.88-11.52,36.39-17.64,56.68
	c-6.12,20.29-12.05,40.35-16.44,55.35c-2.2,7.5-4.01,13.73-5.27,18.08c-0.63,2.18-1.13,3.89-1.46,5.05
	c-0.17,0.58-0.3,1.03-0.38,1.33l-0.1,0.34l-0.02,0.09l-0.01,0.02l0,0.01c0,0,0,0,0.96,0.28l-0.96-0.28l-0.37,1.28h1.33h128.73
	L269.8,212.86z M602.85,244.7l1.2,0.24v-1.22v-32.4c0-19.05-7.68-32.24-19.93-40.63c-12.19-8.35-28.81-11.88-46.62-11.88
	c-27.38,0-49.27,9.61-62.29,27.93l-44.83-12.53c20.37-33.99,59.45-52.93,113.82-52.93c41.96,0,68.83,10.65,85.21,26.82
	c16.38,16.17,22.43,38.01,22.43,60.74v144.71v1h1H700v38.5h-90.67l0-0.21c-0.01-0.76-0.02-1.84-0.04-3.14
	c-0.03-2.6-0.09-6.07-0.15-9.54c-0.06-3.47-0.13-6.95-0.21-9.55c-0.04-1.3-0.08-2.4-0.12-3.17c-0.02-0.38-0.04-0.7-0.06-0.93
	c-0.01-0.11-0.02-0.22-0.04-0.32c-0.01-0.04-0.03-0.13-0.06-0.23c-0.02-0.04-0.06-0.15-0.14-0.26c-0.07-0.09-0.33-0.4-0.81-0.4
	h-0.32l-0.26,0.19c-35.3,25.62-60.48,34.91-93.69,34.91c-55.88,0-89.82-38.05-89.82-78.48c0-32.95,12.97-53.83,33.7-66.54
	c20.82-12.76,49.6-17.35,81.28-17.35C559.24,238.02,581.2,240.39,602.85,244.7L602.85,244.7z M604.16,276.44v-0.98l-0.98-0.02
	c-5.86-0.13-13.14-1.06-21.42-2.12c-1.77-0.23-3.59-0.46-5.45-0.69c-10.51-1.31-22.28-2.59-34.39-2.59
	c-17.58,0-35.85,1.75-49.75,9.11c-6.97,3.69-12.86,8.8-17,15.8c-4.14,7.01-6.49,15.85-6.49,26.95c0,11.99,4.62,22.87,13.46,30.76
	c8.83,7.88,21.8,12.69,38.41,12.69c29.59,0,62.67-11.41,83.29-30.07l0.33-0.3v-0.44L604.16,276.44z"/>
</svg>
