<?xml version="1.0" encoding="utf-8"?>
<!-- Generator: Adobe Illustrator 27.3.1, SVG Export Plug-In . SVG Version: 6.00 Build 0)  -->
<svg version="1.1" id="Layer_1" xmlns="http://www.w3.org/2000/svg" xmlns:xlink="http://www.w3.org/1999/xlink" x="0px" y="0px"
	 viewBox="0 0 701 410" style="enable-background:new 0 0 701 410;" xml:space="preserve">
<style type="text/css">
	.st0{fill:#333333;}
	.st1{fill:url(#SVGID_1_);}
	.st2{fill:url(#SVGID_00000021115381755746515620000013872621697474453136_);}
	.st3{fill:url(#SVGID_00000014614113814956173880000015310694415521439891_);}
	.st4{fill:url(#SVGID_00000074442517616043122120000011829675086817864345_);}
	.st5{fill:url(#SVGID_00000126325437216757590890000014222803021741765817_);}
	.st6{fill:url(#SVGID_00000155112750301818027830000006844512973015124108_);}
	.st7{fill-rule:evenodd;clip-rule:evenodd;fill:url(#SVGID_00000140719585598809092910000017740287484840831134_);}
	.st8{fill:url(#SVGID_00000055674450363452528380000006327328906555313585_);}
	.st9{fill:url(#SVGID_00000103240624547769749150000015663663106644340912_);}
	.st10{fill:#252525;}
	.st11{fill:url(#SVGID_00000142137645607706625760000010648822291156467842_);}
</style>
<g>
	<g>
		<g>
			<path class="st0" d="M467.44,409.29H410.5c-12.54,0-23.34-4.39-32.11-13.06c-8.56-8.45-12.83-18.57-13.05-30.9h-0.01
				c-0.23,12.14-4.69,22.53-13.26,30.9c-8.88,8.67-19.72,13.06-32.22,13.06h-56.63V307.17h67.86l-40.46-88.3l-106.93,0l-40.35,88.3
				h68.72v102.12h-56.41c-12.57,0-23.45-4.39-32.33-13.06c-8.64-8.43-13.14-18.83-13.37-30.9h-0.01
				c-0.23,12.14-4.69,22.53-13.26,30.9c-8.88,8.67-19.72,13.06-32.22,13.06H7.91V307.17h71.5l40.89-88.3H79.38l0.42-1.31
				c1.5-4.6,4.1-8.88,7.74-12.72c-3.72-4.3-6.3-8.39-7.69-12.14l-0.5-1.35h53.78l39.92-88.3h-37.57V0.92h56.52
				c12.96,0,23.91,4.43,32.54,13.17c8.43,8.54,12.82,18.96,13.05,31.01h0.01c0.23-12.11,4.69-22.54,13.26-31.01
				c8.84-8.74,19.68-13.17,32.22-13.17h56.63v102.12h-38.32l39.82,88.3l52.8-0.53l-0.57,1.39c-1.97,4.82-4.63,9.05-8.13,12.95
				c3.36,3.94,6.07,8.11,8.04,12.39l0.65,1.42h-40.49l41,88.3h72.9V409.29z M363.33,363.33h4v1c0,12.22,4.08,22.19,12.47,30.48
				c8.38,8.28,18.72,12.48,30.71,12.48h54.95v-98.02h-72.17l-0.54-1.16l-42.31-91.15h40.46c-1.82-3.62-4.2-7.15-7.07-10.51
				l-1.14-1.33l1.17-1.3c3-3.34,5.36-6.95,7.17-10.98l-51.06,0.52l-0.54-1.19l-41.09-91.13h39.42V2.92h-54.63
				c-12.16,0-22.24,4.12-30.81,12.59c-8.41,8.31-12.68,18.6-12.68,30.58v1h-3.99v-1c0-11.92-4.2-22.22-12.48-30.6
				c-8.24-8.34-18.71-12.57-31.12-12.57h-54.52v98.12h38.67l-41.73,92.3H82.29c1.39,3.16,3.67,6.58,6.78,10.18l1.18,1.37L89,206.22
				c-3.08,3.25-5.38,6.82-6.83,10.65h41.26l-42.74,92.3H9.91v98.12h54.52c12.13,0,22.21-4.09,30.82-12.49
				c8.53-8.32,12.67-18.29,12.67-30.47v-1h4v1c0,12.11,4.18,22.08,12.78,30.47c8.49,8.29,18.9,12.49,30.93,12.49h54.41v-98.12
				h-69.83l42.18-92.3h109.5l0.53,1.17l41.76,91.14h-68.98v98.12h54.63c12.13,0,22.21-4.09,30.82-12.49
				c8.53-8.32,12.67-18.29,12.67-30.47V363.33z M280.65,193.24h-86.48l1.29-2.82l40.46-88.94h3.11L280.65,193.24z M197.28,191.24
				h80.27l-39.82-87.77h-0.53L197.28,191.24z"/>
		</g>
	</g>
	<g>
		<g>
			<path class="st0" d="M693.09,409.29h-56.41c-12.64,0-23.52-4.47-32.33-13.27c-8.64-8.64-13.14-19.14-13.37-31.22h-0.01
				c-0.23,12.15-4.69,22.65-13.26,31.22c-8.81,8.81-19.65,13.27-32.22,13.27h-56.63V307.17h45.5c7.81,0,14.51-2.74,19.91-8.13
				c5.4-5.4,8.13-12.1,8.13-19.91v-59.83h-22.51l0.46-1.33c1.51-4.37,4.1-8.75,7.71-13.02c-3.75-4.35-6.36-8.74-7.75-13.04
				l-0.42-1.31h22.52v-59.73c0-7.81-2.74-14.51-8.13-19.91c-5.4-5.4-12.1-8.13-19.91-8.13h-45.5V52.84h28.05
				c12.57,0,23.41-4.47,32.22-13.27c8.81-8.81,13.27-19.65,13.27-32.22V0.71h57.16V190.6h22.73l-0.45,1.32
				c-1.48,4.36-4,8.62-7.72,13.03c3.85,4.56,6.38,8.83,7.75,13.04l0.42,1.31h-22.73v59.73c0,7.74,2.88,14.44,8.56,19.91
				c5.61,5.4,12.49,8.13,20.44,8.13h44.53V409.29z M588.97,362.79h4v1c0,12.12,4.19,22.2,12.8,30.81
				c8.42,8.42,18.82,12.69,30.91,12.69h54.41v-98.23h-42.53c-8.49,0-15.84-2.92-21.83-8.69c-6.09-5.86-9.18-13.04-9.18-21.35v-61.73
				h21.94c-1.36-3.55-3.64-7.18-6.91-11.06l-1.09-1.29l1.09-1.29c3.17-3.76,5.43-7.39,6.87-11.06h-21.9V2.71h-53.16v4.64
				c0,13.12-4.66,24.44-13.86,33.63c-9.19,9.2-20.51,13.86-33.63,13.86h-26.05v45.99h43.5c8.36,0,15.54,2.93,21.32,8.72
				c5.79,5.79,8.72,12.96,8.72,21.32v61.73h-21.73c1.39,3.63,3.71,7.34,6.9,11.04l1.12,1.29l-1.1,1.3
				c-3.08,3.65-5.38,7.36-6.86,11.06h21.67v61.83c0,8.36-2.93,15.54-8.72,21.32c-5.79,5.79-12.96,8.72-21.32,8.72h-43.5v98.12h54.63
				c12.19,0,22.27-4.15,30.81-12.69c8.54-8.54,12.69-18.62,12.69-30.81V362.79z"/>
		</g>
	</g>
</g>
</svg>
