<?xml version="1.0" encoding="utf-8"?>
<!-- Generator: Adobe Illustrator 27.3.1, SVG Export Plug-In . SVG Version: 6.00 Build 0)  -->
<svg version="1.1" id="Layer_1" xmlns="http://www.w3.org/2000/svg" xmlns:xlink="http://www.w3.org/1999/xlink" x="0px" y="0px"
	 viewBox="0 0 701 410" style="enable-background:new 0 0 701 410;" xml:space="preserve">
<style type="text/css">
	.st0{fill:#333333;}
	.st1{fill:url(#SVGID_1_);}
	.st2{fill:url(#SVGID_00000042734397317384266950000002741426239239753404_);}
	.st3{fill:url(#SVGID_00000155826072361575939660000002426467225800349611_);}
	.st4{fill:url(#SVGID_00000050641620521862160580000003214507870725417910_);}
	.st5{fill:url(#SVGID_00000096779251660336563920000005390204193999229873_);}
	.st6{fill:url(#SVGID_00000077302162239879609530000008745225654042014134_);}
	.st7{fill-rule:evenodd;clip-rule:evenodd;fill:url(#SVGID_00000096780647896320898730000006514534271823208101_);}
	.st8{fill:url(#SVGID_00000150797411582000635040000013274758876593916347_);}
	.st9{fill:url(#SVGID_00000163033360033988807250000013118837290730761643_);}
	.st10{fill:#252525;}
	.st11{fill:url(#SVGID_00000005249161904037746420000003991555094020659127_);}
</style>
<linearGradient id="SVGID_1_" gradientUnits="userSpaceOnUse" x1="9.7029" y1="205" x2="691.2971" y2="205">
	<stop  offset="0" style="stop-color:#009FFF"/>
	<stop  offset="1" style="stop-color:#1E77ED"/>
</linearGradient>
<path class="st1" d="M316.29,368.53c6.96,3.82,14.1,5.82,21.27,5.82c14.45,0,27.56-7.85,39.26-23.13
	c11.67-15.25,21.44-35.49,29.24-60.67l0.4-1.29h-1.35H229.86h-0.53l-0.3,0.44l-21.89,32.55c-16.16,23.91-34.56,41.36-55.18,52.26
	l0,0c-20.64,10.99-43.72,16.45-69.28,16.45c-25.61,0-44.01-4.89-55.58-14.48c-11.7-9.7-17.39-19.84-17.39-30.34
	c0-10.78,3.14-19.31,9.44-25.76c6.31-6.48,14.17-9.67,23.55-9.67c9.5,0,16.35,2.96,20.67,8.81l0.01,0.01
	c4.48,5.95,6.73,13.91,6.73,24c0,4.95-1.16,9.24-3.46,12.91c-2.3,3.67-5.77,6.77-10.47,9.29l-0.71,0.38l0.22,0.77
	c0.33,1.14,1.11,2.18,2.19,3.13c1.09,0.95,2.55,1.86,4.33,2.73c3.66,1.79,8.65,2.64,14.89,2.64c6.25,0,12.26-0.77,18.01-2.32
	c5.81-1.56,12.51-4.92,20.09-10.12l0,0c7.55-5.23,15.48-13.09,23.71-23.45c17.72-22.29,39.72-56.33,66.02-101.99
	c26.36-45.62,51.94-83.61,76.92-113.91c24.96-30.27,54.73-57.43,89.41-81.39l1.22-0.84l-1.24-0.81
	c-10.42-6.83-23.2-12.28-38.24-16.44l0,0c-15.06-4.08-31.89-6.21-50.65-6.21c-18.72,0-38.27,3.32-58.56,10.03
	c-20.3,6.71-37.49,15.81-51.63,27.31l0,0c-14.03,11.48-25.94,25.01-35.64,40.57c-18.79,29.94-28.22,64.78-28.22,104.68
	c0,27.05,4.57,53.68,13.63,79.88l-15.72,7.51c-19.54-31.84-29.31-65.64-29.31-101.26c0-24.3,4.79-47.41,14.37-69.6
	c9.59-22.12,22.96-41.79,40.28-58.95l0,0c17.22-17.13,39.16-30.84,65.76-41.03c26.59-10.18,55.72-15.32,87.48-15.32
	c23.15,0,39.59,1.61,49.4,4.77l0.01,0l19.19,5.92l0.01,0c6.31,1.91,13.76,5.5,22.52,10.72c4.35,2.62,7.65,4.61,9.88,5.96
	c1.11,0.68,1.96,1.19,2.54,1.55c0.29,0.18,0.5,0.31,0.65,0.41c0.07,0.04,0.12,0.08,0.15,0.1l0.45,0.45l0.63-0.3
	c17.03-8.01,31.66-13.13,43.81-15.56c12.03-2.32,26.05-3.58,41.9-3.62l5.62,10.52c-27.83,0.26-52.98,7.06-75.53,20.42l-1.19,0.7
	l1.04,0.91c21.08,18.39,36.71,41.91,46.97,70.6c10.27,28.71,15.41,60.29,15.41,94.6c0,34.4-4.89,67.01-14.66,98.02
	c-9.78,31.02-22.74,55.48-38.93,73.52c-16.18,18.03-33.6,26.89-52.26,26.89h-0.01c-18.04,0.16-35.88-9.09-53.04-27.87L316.29,368.53
	z M390.87,55.66l-0.73,0.68l-0.6-0.8c-30.02,22.3-54.53,48.34-73.7,77.95c-16.59,25.48-31.99,52.14-46.13,79.98
	c-14.12,27.81-24.51,47.49-31.09,59.22l-0.83,1.49h1.7h170.43h0.78l0.19-0.75c8.39-33.55,12.54-66.94,12.54-100.17
	C423.43,118.39,412.6,79.1,390.87,55.66z M538.34,389.18c-17.67,0-31.67-5.99-42.28-17.92c-10.55-11.97-15.9-27.03-15.9-45.16
	c0-28.25,9.13-52.01,27.54-71.42l0,0c18.34-19.43,39.81-29.11,64.45-29.11c12.23,0,22.39,3.41,30.3,10.08l0,0
	c8.02,6.7,13.24,15.46,15.73,26.26l1.94,0.02l7.76-30.44h39.61l-20.8,78.62c-3.4,11.31-5.11,21.54-5.11,30.87
	c0,4.6,0.4,8.18,1.26,10.64c0.86,2.45,2.31,4.13,4.56,4.13c1.88,0,3.97-0.81,6.24-2.26c2.28-1.46,4.83-3.63,7.65-6.49
	c5.61-5.61,10.47-11.32,14.4-17.12l5.5-7.61l10.11,9.37c-5.82,11.06-13.08,21.16-21.89,30.38c-17.64,18.31-32.69,27.17-45.19,27.17
	c-7.35,0-12.76-2.82-16.4-8.42c-3.68-5.68-5.6-14.33-5.6-26.09c0-3.88,0.17-6.76,0.49-8.62l-1.94-0.46
	c-2.65,8.86-7.62,16.75-14.94,23.57l-0.01,0.01C571.72,382.54,555.89,389.18,538.34,389.18z M552.87,259.78L552.87,259.78
	c-9.07,8.73-16.08,19.25-20.95,31.64c-4.86,12.28-7.25,24.32-7.25,36.04c0,11.72,2.57,21.33,7.79,28.65
	c5.3,7.42,13.5,11.07,24.31,11.07c10.91,0,20.8-4.99,29.49-14.79l0,0c16.4-18.7,24.51-40.92,24.51-66.6
	c0-12.81-2.27-22.61-6.98-29.23c-4.75-6.68-11.89-9.98-21.24-9.98C571.93,246.57,562.05,251.02,552.87,259.78L552.87,259.78z"/>
</svg>
