<?xml version="1.0" encoding="utf-8"?>
<!-- Generator: Adobe Illustrator 27.3.1, SVG Export Plug-In . SVG Version: 6.00 Build 0)  -->
<svg version="1.1" id="Layer_1" xmlns="http://www.w3.org/2000/svg" xmlns:xlink="http://www.w3.org/1999/xlink" x="0px" y="0px"
	 viewBox="0 0 701 410" style="enable-background:new 0 0 701 410;" xml:space="preserve">
<style type="text/css">
	.st0{fill:#333333;}
	.st1{fill:url(#SVGID_1_);}
	.st2{fill:url(#SVGID_00000152262825646031128900000007360919564321208211_);}
	.st3{fill:url(#SVGID_00000060748102043042988640000017395231536931523743_);}
	.st4{fill:url(#SVGID_00000157996163370483610590000005512034549668910733_);}
	.st5{fill:url(#SVGID_00000052098299721672371680000011609545092530788508_);}
	.st6{fill:url(#SVGID_00000105414550278664066450000011098125156773768333_);}
	.st7{fill-rule:evenodd;clip-rule:evenodd;fill:url(#SVGID_00000172432488835657696520000011399745714483621022_);}
	.st8{fill:url(#SVGID_00000059305527767229784750000016325231088606476208_);}
	.st9{fill:url(#SVGID_00000023251678532508954790000005341852819169476514_);}
	.st10{fill:#252525;}
	.st11{fill:url(#SVGID_00000008853422549012326910000017519490643705227403_);}
</style>
<g>
	<g id="Icon_00000145020951993287811840000017565025464628682931_">
		<g id="F_00000119829944400773109260000003261492806886131877_">
			<path class="st0" d="M188.05,409.29c-88.55,0-136.33-69.36-136.33-134.61c0-26.29,7.53-50.08,21.78-68.81
				c15.66-20.59,38.85-33.73,67.08-38c4.54-0.81,9.21-1.22,13.84-1.22c18.07,0,35.19,5.38,48.21,15.14
				c13.94,10.45,22.16,24.92,23.77,41.85l0.41,7.49c0,36.67-27.25,55.83-54.16,55.83c-21.42,0-40.06-12.31-48.64-32.12
				c-2.83-6.05-4.21-12.71-4.21-20.33c0-12.69,4.26-24.83,11.8-33.97c-16.65,7.73-26.82,24.94-26.82,45.95
				c0,3.34,0.34,6.42,0.69,9.68l0.11,0.99c5.97,35.62,38.87,54.29,68.28,54.29c12.87,0,25.32-3.53,36.02-10.22
				c36.99-23.42,50.18-83.31,50.18-131.56c0-18.13-1.84-36.2-5.47-53.74c-20.17,16.81-40.88,25.34-61.59,25.34
				c-32.02,0-56.03-21.53-62.37-41.78c-2.23-6.61-3.37-13.97-3.37-21.85c0-18.3,7.88-35,22.19-47.04
				c13.71-11.54,31.97-17.89,51.4-17.89c29.36,0,57.52,14.38,77.42,39.5l3.61-2.59C312.1,27.82,349.73,0.71,388.82,0.71h2.52
				c29.12,0.39,54.57,15.96,64.85,39.67c3.4,8.03,5.12,16.53,5.12,25.27c0.23,34.36-22.59,56.42-45.3,63.04
				c-22.17,6.46-42.9-0.63-54.12-18.51l-0.77-1.23l1.42-0.29c5.15-1.04,8.99-8.39,8.56-16.39c-0.24-4.47-2.69-19.2-23.85-21.11
				c-14.32-1.14-31.9,4.26-50.85,15.59c16.48,32.59,27.93,76.53,30.73,118c14.24-2.11,28.84-6.3,41.77-10.01
				c5.54-1.59,10.78-3.09,15.56-4.31l0.14-0.03l3.83-0.41c13,0,18.82,17.8,18.82,35.44c0,19.06-7.06,39.56-22.55,39.56l-2.25-0.01
				c-12.54-1.69-26.77-5.73-39.32-9.29c-5.54-1.57-10.79-3.06-15.21-4.14c-2.98,42.09-16.42,80.47-37.9,108.18
				c-24.68,31.85-59.24,48.99-99.94,49.55H188.05z M154.42,168.64c-4.52,0-9.07,0.4-13.52,1.19
				c-52.97,8.03-87.18,49.18-87.18,104.84c0,64.29,47.08,132.61,134.33,132.61h2.01c92.76-1.29,131.2-85.4,135.94-157.05l0.08-1.18
				l1.15,0.27c4.69,1.1,10.39,2.72,16.44,4.44c12.47,3.54,26.6,7.55,38.98,9.23h2.05c14.12,0,20.55-19.47,20.55-37.56
				c0-16.62-5.19-33.38-16.77-33.44l-3.6,0.39c-4.73,1.21-9.93,2.7-15.43,4.28c-13.31,3.82-28.4,8.15-43.11,10.22l-1.07,0.15
				l-0.07-1.08c-2.68-41.87-14.27-86.41-31-119.13l-0.42-0.83l0.8-0.48c19.62-11.88,37.9-17.53,52.85-16.35
				c18.1,1.63,25.13,12.95,25.68,22.99c0.46,8.41-3.32,15.98-8.79,18.06c10.87,16.26,30.34,22.6,51.14,16.54
				c21.99-6.41,44.08-27.79,43.86-61.11c0-8.48-1.67-16.71-4.96-24.49c-9.97-22.98-34.71-38.08-63.03-38.46h-2.5
				c-38.44,0-75.78,26.9-105.79,48.51l-5.17,3.72l-0.59-0.76c-19.55-25.09-47.41-39.49-76.44-39.49c-40.15,0-71.6,27.65-71.6,62.94
				c0,7.66,1.1,14.8,3.27,21.23c6.14,19.6,29.41,40.4,60.47,40.4c20.66,0,41.38-8.73,61.58-25.94l1.28-1.09l0.35,1.64
				c3.89,18.19,5.86,36.96,5.86,55.79c0,48.78-13.43,109.4-51.11,133.25c-11.02,6.89-23.84,10.53-37.08,10.53
				c-16.36,0-32.34-5.23-45.02-14.72c-13.71-10.27-22.44-24.55-25.24-41.29l-0.12-1.05c-0.36-3.31-0.7-6.45-0.7-9.89
				c0-23.52,12.33-42.48,32.18-49.47l4.15-1.46l-3.11,3.11c-9.03,9.03-14.21,22.09-14.21,35.84c0,7.33,1.32,13.71,4.03,19.51
				c8.27,19.09,26.21,30.94,46.82,30.94c25.92,0,52.16-18.47,52.16-53.77l-0.4-7.4C221.36,191.85,191.93,168.64,154.42,168.64z
				 M228.82,76.01c-16.09,0-28.88-7.07-34.41-14.07c-1.93-2.83-2.73-4.99-2.73-7.27c0-6.46,6.21-10.97,15.1-10.97
				c11.02,0,26.41,7.66,36.55,29.17l0.51,1.09l-1.17,0.3C238.16,75.44,233.63,76.01,228.82,76.01z M206.77,45.7
				c-7.71,0-13.1,3.69-13.1,8.97c0,1.85,0.7,3.67,2.34,6.08c5.19,6.57,17.38,13.26,32.8,13.26c4.21,0,8.2-0.45,12.16-1.39
				C231.25,52.8,216.99,45.7,206.77,45.7z"/>
		</g>
	</g>
	<g>
		<g>
			<path class="st0" d="M524.95,389.8c-26.05,0-48.19-9.12-65.79-27.11c-17.6-17.98-26.52-40.56-26.52-67.1
				c0-26.54,8.96-49.18,26.62-67.29c17.67-18.11,39.77-27.3,65.7-27.3c13.08,0,25.05,2.39,35.55,7.1
				c9.75,4.37,18.54,10.85,26.16,19.29v-21.65h62.62v28.71h-27.09v122.28h27.09v28.71h-62.62v-21.86
				c-6.95,8.24-15.45,14.63-25.31,19.03C550.66,387.38,538.41,389.8,524.95,389.8z M524.95,203c-25.37,0-46.99,8.98-64.27,26.7
				c-17.29,17.72-26.05,39.89-26.05,65.89c0,26.01,8.73,48.11,25.95,65.7c17.21,17.59,38.87,26.51,64.36,26.51
				c13.18,0,25.16-2.36,35.59-7.02c10.41-4.65,19.27-11.59,26.33-20.64l1.79-2.29v25.59h58.62v-24.71h-27.09V232.45h27.09v-24.71
				h-58.62v25.02l-1.76-2.07c-7.82-9.19-16.98-16.17-27.21-20.77C549.43,205.33,537.75,203,524.95,203z M529.49,362.14
				c-17.51,0-32.35-6.35-44.11-18.88c-11.75-12.51-17.7-28.55-17.7-47.67c0-19.24,5.83-35.25,17.32-47.57
				c11.51-12.34,26.48-18.6,44.5-18.6c17.51,0,32.32,6.29,44.02,18.69c11.68,12.39,17.61,28.36,17.61,47.48
				c0,19.12-5.92,35.16-17.6,47.67C561.82,355.79,547.01,362.14,529.49,362.14z M529.49,231.42c-17.44,0-31.91,6.04-43.03,17.96
				c-11.14,11.94-16.78,27.49-16.78,46.21c0,18.6,5.77,34.17,17.16,46.3c11.37,12.11,25.72,18.25,42.66,18.25
				c16.94,0,31.26-6.14,42.56-18.25c11.32-12.13,17.07-27.71,17.07-46.3c0-18.59-5.74-34.11-17.06-46.11
				C560.75,237.5,546.43,231.42,529.49,231.42z"/>
		</g>
	</g>
</g>
</svg>
