<?xml version="1.0" encoding="utf-8"?>
<!-- Generator: Adobe Illustrator 27.3.1, SVG Export Plug-In . SVG Version: 6.00 Build 0)  -->
<svg version="1.1" id="Layer_1" xmlns="http://www.w3.org/2000/svg" xmlns:xlink="http://www.w3.org/1999/xlink" x="0px" y="0px"
	 viewBox="0 0 701 410" style="enable-background:new 0 0 701 410;" xml:space="preserve">
<style type="text/css">
	.st0{fill:#333333;}
	.st1{fill:url(#SVGID_1_);}
	.st2{fill:url(#SVGID_00000163032312896061140800000013473710008808309416_);}
	.st3{fill:url(#SVGID_00000119831489350194480130000017638948890292568253_);}
	.st4{fill:url(#SVGID_00000039855479697206739630000010153402498888083630_);}
	.st5{fill:url(#SVGID_00000107557595154466230520000000231658249488523928_);}
	.st6{fill:url(#SVGID_00000043418635877359103860000001824827729184319905_);}
	.st7{fill-rule:evenodd;clip-rule:evenodd;fill:url(#SVGID_00000060724689364569655080000006377115085368688817_);}
	.st8{fill:url(#SVGID_00000165956877221280135400000010854051402523822226_);}
	.st9{fill:url(#SVGID_00000045615709263556370380000016836866398195724185_);}
	.st10{fill:#252525;}
	.st11{fill:url(#SVGID_00000172419073930554699280000006898018799046705294_);}
</style>
<linearGradient id="SVGID_1_" gradientUnits="userSpaceOnUse" x1="2.1795" y1="205" x2="698.8205" y2="205">
	<stop  offset="0" style="stop-color:#009FFF"/>
	<stop  offset="1" style="stop-color:#1E77ED"/>
</linearGradient>
<path class="st1" d="M282.71,321.39l-0.24-0.65h-0.69H128.82h-0.69l-0.24,0.65l-29.47,79.6H2.18L163.59,1.71H247l161.41,399.28
	h-96.23L282.71,321.39z M250.6,242.48h1.45l-0.52-1.36l-44.82-116.74l-0.25-0.64h-0.69h-0.97h-0.69l-0.25,0.64l-44.82,116.74
	l-0.52,1.36h1.45H250.6z M614.59,176.3v-22.84h84.23v247.53h-83.25v-27.21v-1h-1h-0.97h-0.44l-0.3,0.33
	c-21.24,23.45-48.24,35.18-81.1,35.18c-35.78,0-65.23-12.54-88.41-37.61c-23.2-25.42-34.81-56.47-34.81-93.2s11.61-67.78,34.81-93.2
	c23.18-25.4,52.63-38.1,88.41-38.1c32.9,0,59.92,10.3,81.14,30.85l1.69,1.64V176.3z M514.99,234.44L514.99,234.44L514.99,234.44
	c-11.26,11.24-16.87,25.61-16.87,43.03c0,17.41,5.44,31.78,16.36,43.01l0.01,0.01l0,0.01c10.93,10.92,25.33,16.34,43.08,16.34
	c17.12,0,31.19-5.6,42.12-16.83c11.24-11.23,16.85-25.43,16.85-42.53c0-17.43-5.77-31.8-17.35-43.03
	c-11.24-11.22-25.13-16.82-41.62-16.82C540.77,217.62,526.55,223.23,514.99,234.44L514.99,234.44z"/>
</svg>
