<?xml version="1.0" encoding="utf-8"?>
<!-- Generator: Adobe Illustrator 27.3.1, SVG Export Plug-In . SVG Version: 6.00 Build 0)  -->
<svg version="1.1" id="Layer_1" xmlns="http://www.w3.org/2000/svg" xmlns:xlink="http://www.w3.org/1999/xlink" x="0px" y="0px"
	 viewBox="0 0 701 410" style="enable-background:new 0 0 701 410;" xml:space="preserve">
<style type="text/css">
	.st0{fill:#333333;}
	.st1{fill:url(#SVGID_1_);}
	.st2{fill:url(#SVGID_00000083775620230723331820000000088824281082837660_);}
	.st3{fill:url(#SVGID_00000140002196652184612050000018253616749116482176_);}
	.st4{fill:url(#SVGID_00000036216125959251158460000008294427691405547701_);}
	.st5{fill:url(#SVGID_00000166635474227508018280000015056370018286384771_);}
	.st6{fill:url(#SVGID_00000036934002381539793950000018344774576343644566_);}
	.st7{fill-rule:evenodd;clip-rule:evenodd;fill:url(#SVGID_00000060743645851065645950000002610760537250457732_);}
	.st8{fill:url(#SVGID_00000162335482004904213490000016274534910326073772_);}
	.st9{fill:url(#SVGID_00000027563344958109601880000002058801276825170602_);}
	.st10{fill:#252525;}
	.st11{fill:url(#SVGID_00000082327675559962327940000017887979492499854210_);}
</style>
<g>
	<g>
		<g>
			<path class="st0" d="M365.35,409h-46.73l-37.98-116.96H118.98l0,0.01L81.35,409H34.62l0.44-1.32L171.09,1h58.21l0.23,0.68
				L365.35,409z M320.08,407h42.5L227.86,3h-55.32L37.4,407h42.49l37.63-116.96h164.59l0.45,1.4L320.08,407z M271.3,256.44H128.75
				l71.4-218.1L271.3,256.44z M131.51,254.44h137.03l-0.01-0.02L200.15,44.78l-0.02,0.05L131.51,254.44z"/>
		</g>
	</g>
	<g>
		<g>
			<path class="st0" d="M509.92,409c-39.87,0-71.03-14.92-92.61-44.35c-19.29-26.21-29.07-60.59-29.07-102.17
				c0-45.58,13.16-83.78,39.12-113.54c27.17-31.3,63.78-47.18,108.81-47.18c30.63,0,59.52,10.43,85.88,30.98l0.03,0.02v-23.86h43.91
				v292.04h-43.91V281.59l-0.2-0.02c-5.44,30.31-17.74,58.09-36.55,82.57C563.18,393.91,537.8,409,509.92,409z M536.17,103.76
				c-44.42,0-80.52,15.64-107.3,46.49c-25.64,29.39-38.63,67.15-38.63,112.23c0,41.14,9.65,75.12,28.68,100.98
				c21.18,28.89,51.8,43.54,91,43.54c27.22,0,52.05-14.82,73.81-44.04c18.82-24.49,31.04-52.29,36.35-82.63l0.16-0.9l3.85,0.33
				v119.18h39.91V110.91h-39.91v25.96l-3.26-2.54C594.82,114.04,566.34,103.76,536.17,103.76z M509.84,370
				c-27.63,0-48.75-11.73-62.78-34.86c-11.28-19.02-16.99-43.46-16.99-72.65c0-35.24,8.66-64.87,25.73-88.08
				c19.08-26.18,46.13-39.45,80.38-39.45c32.52,0,61.92,13.71,87.36,40.76l0.23,0.24l0.24,2.16v21.91
				c0,36.13-9.72,72.24-28.88,107.33l-0.04,0.07C571.97,348.94,543.28,370,509.84,370z M536.17,136.95
				c-33.57,0-60.07,13-78.76,38.63c-16.82,22.86-25.34,52.1-25.34,86.9c0,28.83,5.62,52.93,16.7,71.62
				c13.64,22.5,34.19,33.9,61.07,33.9c32.66,0,60.74-20.7,83.48-61.53l0.02-0.04C612.36,271.62,622,235.82,622,200.02v-21.85
				l-0.15-1.33C596.85,150.37,568.02,136.95,536.17,136.95z"/>
		</g>
	</g>
</g>
</svg>
