<?xml version="1.0" encoding="utf-8"?>
<!-- Generator: Adobe Illustrator 27.3.1, SVG Export Plug-In . SVG Version: 6.00 Build 0)  -->
<svg version="1.1" id="Layer_1" xmlns="http://www.w3.org/2000/svg" xmlns:xlink="http://www.w3.org/1999/xlink" x="0px" y="0px"
	 viewBox="0 0 701 410" style="enable-background:new 0 0 701 410;" xml:space="preserve">
<style type="text/css">
	.st0{fill:#333333;}
	.st1{fill:url(#SVGID_1_);}
	.st2{fill:url(#SVGID_00000107586680886395930150000009974350190109838009_);}
	.st3{fill:url(#SVGID_00000173156571434897475850000011904167188610939058_);}
	.st4{fill:url(#SVGID_00000054945440249026878820000009324370457217078159_);}
	.st5{fill:url(#SVGID_00000163041215033522410790000007032222957267462590_);}
	.st6{fill:url(#SVGID_00000182493854399091037980000004170588773764361106_);}
	.st7{fill-rule:evenodd;clip-rule:evenodd;fill:url(#SVGID_00000007423596370539761780000015299227509367452578_);}
	.st8{fill:url(#SVGID_00000033369120576569778730000015855949976747071920_);}
	.st9{fill:url(#SVGID_00000128482335500126448170000004890684979389873296_);}
	.st10{fill:#252525;}
	.st11{fill:url(#SVGID_00000111178045570579167240000017128375185130968501_);}
</style>
<g>
	<g>
		<path class="st0" d="M135.27,409.29c-0.59,0-1.19-0.02-1.79-0.05c-7.74-0.46-14.85-3.9-20.02-9.68
			c-5.17-5.78-7.8-13.22-7.41-20.96c0.39-7.74,3.76-14.88,9.49-20.11c34.1-30.52,63.63-65.69,87.78-104.55
			c-15.59-22.17-29.6-45.7-41.65-69.95c-1.85-3.44-2.97-7.18-3.33-11.1c-0.36-3.92,0.06-7.8,1.26-11.55
			c1.2-3.75,3.1-7.16,5.66-10.15c2.56-2.99,5.65-5.39,9.17-7.14c3.52-1.75,7.3-2.76,11.23-3c3.93-0.24,7.8,0.3,11.51,1.61
			c3.71,1.31,7.06,3.32,9.97,5.97c2.91,2.65,5.21,5.81,6.85,9.38c6.27,12.59,13.17,25.04,20.5,36.99
			c11.27-25.52,20.35-52.23,27-79.44H135.03c-7.8,0-15.14-3.04-20.66-8.56s-8.56-12.85-8.56-20.66s3.04-15.14,8.56-20.66
			s12.85-8.56,20.66-8.56h83.64V29.92c0-7.8,3.04-15.14,8.56-20.66c5.52-5.52,12.85-8.56,20.66-8.56c7.8,0,15.14,3.04,20.66,8.56
			s8.56,12.85,8.56,20.66v27.21h83.64c7.8,0,15.14,3.04,20.66,8.56c5.52,5.52,8.56,12.85,8.56,20.66c0,7.8-3.04,15.14-8.56,20.66
			c-5.52,5.52-12.85,8.56-20.66,8.56h-39.31c-10.04,46.53-26.28,91.52-48.26,133.74c7.79,9.49,16.31,19.03,25.31,28.38
			c2.68,2.78,4.75,6.01,6.16,9.59c1.41,3.59,2.09,7.37,2.02,11.22c-0.07,3.86-0.89,7.61-2.43,11.14c-1.54,3.54-3.73,6.69-6.5,9.37
			c-2.77,2.68-6,4.75-9.59,6.16c-3.6,1.41-7.37,2.08-11.22,2.02c-3.86-0.07-7.6-0.89-11.14-2.42c-3.54-1.54-6.69-3.73-9.37-6.51
			c-5.11-5.33-10.08-10.7-14.8-16c-24.81,36.67-54.11,70.23-87.1,99.76C149.14,406.74,142.36,409.29,135.27,409.29z M187.45,143
			c-0.56,0-1.12,0.02-1.68,0.05c-3.66,0.22-7.17,1.16-10.46,2.8c-3.28,1.63-6.15,3.87-8.54,6.65c-2.39,2.78-4.16,5.96-5.27,9.45
			c-1.11,3.49-1.51,7.11-1.17,10.76c0.33,3.65,1.38,7.14,3.12,10.37c12.12,24.39,26.21,48.02,41.89,70.26l0.38,0.54l-0.35,0.56
			c-24.32,39.24-54.09,74.75-88.49,105.54c-5.33,4.86-8.47,11.51-8.83,18.72c-0.36,7.21,2.09,14.15,6.9,19.53
			c4.82,5.38,11.44,8.58,18.65,9.01c7.22,0.43,14.17-1.96,19.59-6.72c33.18-29.7,62.62-63.49,87.49-100.45l0.72-1.07l0.86,0.97
			c4.95,5.58,10.2,11.27,15.6,16.9c2.49,2.58,5.43,4.62,8.72,6.06c3.29,1.43,6.79,2.19,10.38,2.26c3.58,0.05,7.1-0.57,10.45-1.88
			c3.34-1.32,6.35-3.25,8.94-5.74c2.59-2.5,4.63-5.43,6.06-8.72c1.44-3.29,2.2-6.79,2.26-10.38c0.07-3.59-0.57-7.11-1.88-10.45
			c-1.31-3.34-3.25-6.35-5.74-8.94c-9.21-9.55-17.9-19.31-25.84-29.01l-0.42-0.51l0.31-0.59c22.17-42.47,38.51-87.76,48.55-134.61
			l0.17-0.79h40.93c7.27,0,14.1-2.83,19.24-7.97c5.14-5.14,7.97-11.97,7.97-19.24s-2.83-14.1-7.97-19.24
			c-5.14-5.14-11.97-7.97-19.24-7.97H275.1V29.92c0-7.27-2.83-14.1-7.97-19.24s-11.97-7.97-19.24-7.97c-7.27,0-14.1,2.83-19.24,7.97
			c-5.14,5.14-7.97,11.97-7.97,19.24v29.21h-85.64c-7.27,0-14.1,2.83-19.24,7.97s-7.97,11.97-7.97,19.24s2.83,14.1,7.97,19.24
			s11.97,7.97,19.24,7.97h128.99l-0.3,1.24c-6.86,28.37-16.34,56.22-28.19,82.75l-0.77,1.72l-0.99-1.6
			c-7.74-12.49-15-25.54-21.6-38.79c-1.54-3.36-3.69-6.3-6.4-8.77c-2.71-2.47-5.83-4.34-9.29-5.56
			C193.57,143.52,190.54,143,187.45,143z M339.27,385.09c-0.62,0-1.25-0.02-1.88-0.06c-3.93-0.25-7.72-1.27-11.25-3.03
			c-3.52-1.76-6.61-4.18-9.17-7.18c-2.56-3-4.46-6.43-5.65-10.18c-1.19-3.76-1.6-7.66-1.23-11.58c0.37-3.93,1.51-7.68,3.38-11.15
			L342,284.86l84.57-169.19c2.43-4.87,6.17-8.95,10.79-11.81c4.63-2.86,9.95-4.38,15.39-4.38h0c5.44,0,10.76,1.52,15.39,4.38
			s8.36,6.95,10.79,11.81l84.6,169.19c0.18,0.31,0.37,0.67,0.56,1.04l28,56.01c3.5,7,4.07,14.95,1.59,22.37
			c-2.47,7.42-7.69,13.44-14.69,16.94c-7,3.5-14.94,4.07-22.37,1.59c-7.42-2.47-13.44-7.69-16.94-14.69l-20.14-40.37H386.02
			l-20.2,40.37c-1.64,3.55-3.96,6.71-6.88,9.36c-2.92,2.65-6.28,4.66-10.01,5.96C345.8,384.54,342.56,385.09,339.27,385.09z
			 M452.74,101.47c-5.07,0-10.03,1.41-14.34,4.08c-4.31,2.67-7.79,6.47-10.05,11.01l-85.11,170.27l-28,56
			c-1.76,3.26-2.82,6.75-3.16,10.41c-0.34,3.66,0.04,7.29,1.15,10.79s2.88,6.69,5.27,9.49c2.39,2.79,5.26,5.04,8.55,6.69
			c3.29,1.64,6.81,2.59,10.48,2.82c3.66,0.23,7.28-0.27,10.75-1.48c3.47-1.22,6.61-3.09,9.32-5.56c2.72-2.47,4.88-5.42,6.42-8.75
			l20.77-41.51h135.98l20.7,41.48c3.26,6.52,8.87,11.39,15.79,13.69c6.92,2.31,14.32,1.78,20.84-1.48
			c6.52-3.26,11.39-8.87,13.69-15.79s1.78-14.32-1.48-20.84l-28-56c-0.17-0.33-0.35-0.66-0.54-1l-84.62-169.25
			c-2.27-4.54-5.74-8.34-10.05-11.01C462.77,102.89,457.81,101.47,452.74,101.47z M493.45,271.18h-81.41l40.71-81.41L493.45,271.18z
			 M415.27,269.18h74.94l-37.47-74.94L415.27,269.18z"/>
	</g>
</g>
</svg>
